<?xml version="1.0" standalone="no"?>
<!DOCTYPE svg PUBLIC "-//W3C//DTD SVG 20010904//EN"
 "http://www.w3.org/TR/2001/REC-SVG-20010904/DTD/svg10.dtd">
<svg version="1.0" xmlns="http://www.w3.org/2000/svg"
 width="3273.000000pt" height="4872.000000pt" viewBox="0 0 3273.000000 4872.000000"
 preserveAspectRatio="xMidYMid meet">

<g transform="translate(0.000000,4872.000000) scale(0.100000,-0.100000)"
fill="#000000" stroke="none">
<path d="M15360 47061 c0 -10 7 -21 15 -25 10 -4 15 -20 15 -53 1 -61 15 -134
27 -142 6 -3 13 -42 16 -86 5 -59 12 -83 24 -93 13 -9 18 -31 21 -85 3 -51 10
-79 23 -96 14 -17 19 -40 19 -85 0 -45 6 -67 20 -86 14 -19 20 -41 20 -86 0
-46 5 -68 20 -87 15 -19 20 -40 20 -91 0 -53 3 -67 18 -75 15 -8 20 -27 25
-92 4 -51 12 -86 21 -93 8 -7 16 -40 20 -86 4 -41 12 -83 20 -95 7 -11 16 -55
19 -97 5 -59 12 -83 27 -98 17 -17 20 -33 20 -105 0 -69 3 -86 17 -94 15 -8
19 -29 23 -119 3 -76 10 -114 20 -127 11 -14 16 -64 22 -224 4 -113 12 -226
19 -251 17 -66 17 -600 -1 -660 -7 -25 -16 -119 -20 -210 -5 -126 -10 -172
-23 -195 -10 -18 -17 -53 -17 -90 0 -44 -6 -67 -20 -85 -12 -16 -20 -41 -20
-67 0 -29 -6 -49 -20 -63 -11 -11 -23 -38 -26 -60 -4 -22 -13 -45 -20 -51 -7
-6 -17 -33 -20 -60 -4 -30 -12 -49 -19 -49 -8 0 -16 -17 -20 -39 -4 -27 -13
-41 -26 -44 -15 -4 -19 -14 -19 -45 0 -31 -4 -41 -20 -45 -15 -4 -20 -14 -20
-40 0 -26 -5 -36 -20 -40 -15 -4 -20 -14 -20 -40 0 -26 -5 -36 -20 -40 -15 -4
-20 -14 -20 -37 0 -23 -5 -33 -20 -37 -11 -3 -20 -12 -20 -19 0 -8 -9 -22 -20
-31 -11 -10 -23 -32 -26 -50 -3 -18 -12 -33 -20 -33 -7 0 -16 -11 -20 -25 -3
-14 -12 -25 -20 -25 -8 0 -20 -16 -28 -35 -8 -19 -20 -35 -25 -35 -6 0 -11 -8
-11 -19 0 -10 -9 -21 -20 -24 -12 -3 -20 -14 -20 -26 0 -14 -6 -21 -20 -21
-13 0 -20 -7 -20 -20 0 -13 -7 -20 -20 -20 -12 0 -20 -7 -20 -16 0 -9 -9 -18
-20 -21 -11 -3 -20 -14 -20 -25 0 -11 -8 -22 -19 -25 -11 -3 -21 -13 -24 -24
-3 -11 -14 -19 -26 -19 -13 0 -21 -6 -21 -16 0 -9 -9 -18 -20 -21 -11 -3 -20
-11 -20 -19 0 -7 -9 -18 -20 -24 -11 -6 -20 -17 -20 -25 0 -8 -9 -15 -20 -15
-13 0 -20 -7 -20 -20 0 -14 -7 -20 -21 -20 -12 0 -23 -8 -26 -20 -3 -11 -14
-20 -24 -20 -12 0 -19 -7 -19 -18 0 -11 -12 -23 -34 -30 -19 -7 -37 -19 -40
-27 -3 -8 -12 -15 -20 -15 -9 0 -20 -9 -26 -20 -6 -11 -17 -20 -25 -20 -8 0
-15 -6 -15 -14 0 -8 -11 -17 -25 -20 -14 -4 -25 -13 -25 -21 0 -8 -16 -21 -35
-29 -19 -8 -35 -20 -35 -25 0 -6 -8 -11 -19 -11 -10 0 -21 -9 -24 -20 -3 -12
-14 -20 -26 -20 -12 0 -21 -6 -21 -15 0 -8 -15 -21 -32 -28 -18 -8 -39 -21
-47 -30 -7 -10 -20 -17 -27 -17 -8 0 -14 -5 -14 -10 0 -6 -11 -15 -25 -20 -14
-5 -25 -14 -25 -20 0 -6 -14 -16 -30 -22 -17 -5 -35 -19 -41 -29 -5 -10 -18
-19 -28 -19 -10 0 -21 -9 -24 -20 -3 -12 -14 -20 -26 -20 -12 0 -29 -9 -38
-20 -10 -11 -25 -20 -35 -20 -9 0 -20 -9 -23 -20 -3 -11 -11 -20 -17 -20 -5 0
-23 -11 -40 -25 -16 -14 -35 -25 -43 -25 -7 0 -15 -7 -19 -15 -3 -8 -12 -15
-20 -15 -8 0 -21 -9 -28 -19 -8 -11 -27 -23 -42 -27 -16 -4 -31 -15 -33 -25
-3 -11 -14 -19 -24 -19 -10 0 -23 -9 -29 -20 -6 -12 -21 -20 -36 -20 -13 0
-27 -7 -31 -16 -3 -8 -16 -20 -29 -25 -13 -4 -24 -15 -24 -23 0 -8 -15 -17
-36 -20 -19 -4 -37 -13 -40 -21 -3 -8 -14 -17 -25 -20 -10 -4 -19 -12 -19 -20
0 -7 -16 -16 -35 -19 -19 -4 -38 -13 -42 -20 -5 -7 -18 -18 -30 -25 -13 -6
-23 -18 -23 -25 0 -8 -15 -17 -34 -20 -19 -4 -37 -13 -40 -21 -3 -8 -15 -15
-26 -15 -13 0 -20 -7 -20 -20 0 -13 -7 -20 -20 -20 -11 0 -23 -6 -26 -14 -3
-8 -20 -20 -37 -27 -17 -7 -39 -21 -49 -31 -10 -10 -22 -18 -28 -18 -5 0 -10
-6 -10 -14 0 -8 -15 -17 -36 -20 -19 -4 -37 -13 -40 -21 -3 -8 -14 -17 -25
-20 -10 -4 -19 -13 -19 -21 0 -8 -12 -19 -26 -24 -14 -6 -32 -17 -40 -25 -9
-8 -24 -15 -35 -15 -10 0 -19 -7 -19 -15 0 -9 -11 -20 -25 -25 -14 -5 -25 -16
-25 -24 0 -8 -13 -17 -29 -21 -16 -3 -37 -15 -47 -26 -9 -10 -23 -19 -31 -19
-7 0 -13 -7 -13 -15 0 -8 -7 -15 -15 -15 -9 0 -21 -11 -27 -25 -6 -14 -19 -25
-30 -25 -10 0 -27 -9 -38 -20 -11 -11 -27 -20 -35 -20 -8 0 -15 -7 -15 -15 0
-9 -11 -20 -25 -25 -14 -5 -25 -16 -25 -25 0 -8 -9 -15 -20 -15 -10 0 -24 -9
-30 -20 -6 -11 -22 -23 -36 -26 -13 -3 -29 -15 -35 -25 -5 -11 -16 -19 -24
-19 -8 0 -15 -5 -15 -10 0 -6 -11 -16 -25 -22 -14 -6 -25 -19 -25 -30 0 -11
-7 -18 -20 -18 -11 0 -20 -6 -20 -14 0 -8 -16 -20 -35 -27 -19 -7 -35 -17 -35
-21 0 -5 -11 -13 -25 -18 -14 -5 -25 -16 -25 -25 0 -8 -9 -15 -20 -15 -13 0
-20 -7 -20 -18 0 -11 -11 -24 -25 -30 -14 -6 -25 -16 -25 -21 0 -5 -9 -11 -20
-14 -11 -3 -20 -12 -20 -21 0 -9 -7 -16 -15 -16 -9 0 -20 -11 -25 -25 -5 -14
-16 -25 -25 -25 -8 0 -15 -7 -15 -15 0 -8 -5 -15 -11 -15 -13 0 -118 -88 -170
-142 -20 -21 -41 -38 -47 -38 -7 0 -12 -7 -12 -16 0 -9 -9 -18 -20 -21 -11 -3
-20 -14 -20 -24 0 -11 -4 -19 -9 -19 -12 0 -121 -111 -121 -123 0 -4 -20 -27
-45 -51 -25 -25 -45 -49 -45 -54 0 -5 -9 -12 -20 -15 -11 -3 -20 -14 -20 -25
0 -11 -9 -22 -20 -25 -11 -3 -20 -12 -20 -21 0 -9 -8 -16 -20 -16 -13 0 -20
-7 -20 -19 0 -10 -9 -21 -20 -24 -11 -3 -20 -12 -20 -20 0 -8 -6 -17 -14 -20
-8 -3 -19 -21 -25 -40 -7 -20 -20 -37 -31 -40 -11 -3 -20 -12 -20 -21 0 -9 -7
-16 -15 -16 -8 0 -17 -11 -21 -25 -3 -14 -12 -25 -19 -25 -7 0 -16 -11 -19
-25 -4 -14 -11 -25 -17 -25 -5 0 -17 -16 -25 -35 -8 -19 -21 -35 -29 -35 -9 0
-15 -9 -15 -21 0 -12 -8 -23 -20 -26 -11 -3 -20 -13 -20 -22 0 -9 -9 -24 -20
-34 -11 -9 -20 -26 -20 -38 0 -12 -8 -23 -20 -26 -11 -3 -20 -9 -20 -14 0 -4
-8 -16 -19 -26 -10 -10 -22 -29 -26 -43 -4 -14 -16 -33 -26 -43 -11 -10 -19
-24 -19 -32 0 -8 -6 -15 -14 -15 -8 0 -17 -14 -21 -30 -4 -17 -15 -35 -26 -40
-10 -6 -19 -19 -19 -29 0 -10 -9 -21 -20 -24 -15 -4 -20 -14 -20 -37 0 -23 -5
-33 -20 -37 -11 -3 -20 -13 -20 -22 0 -9 -11 -29 -25 -45 -14 -16 -25 -35 -25
-43 0 -7 -7 -16 -15 -19 -8 -4 -18 -24 -21 -45 -4 -22 -12 -39 -19 -39 -8 0
-16 -13 -20 -29 -3 -16 -15 -37 -26 -47 -10 -9 -19 -23 -19 -31 0 -7 -7 -16
-15 -19 -8 -3 -17 -21 -21 -40 -3 -19 -15 -39 -25 -45 -13 -6 -19 -21 -19 -43
0 -25 -5 -35 -20 -39 -15 -4 -20 -14 -20 -37 0 -23 -5 -33 -19 -37 -13 -3 -22
-17 -26 -43 -4 -21 -13 -41 -20 -44 -8 -3 -17 -21 -20 -40 -4 -19 -13 -37 -20
-40 -7 -2 -16 -23 -20 -45 -4 -25 -12 -41 -20 -41 -8 0 -17 -16 -21 -36 -4
-24 -13 -38 -25 -41 -14 -4 -19 -15 -19 -43 0 -29 -4 -39 -20 -43 -16 -4 -20
-14 -20 -45 0 -31 -4 -41 -20 -45 -15 -4 -20 -14 -20 -41 0 -29 -4 -36 -19
-36 -16 0 -21 -9 -26 -44 -4 -25 -13 -47 -21 -50 -7 -3 -17 -23 -20 -45 -4
-23 -13 -46 -20 -52 -8 -6 -17 -29 -21 -51 -3 -22 -12 -42 -19 -45 -7 -2 -15
-22 -19 -44 -4 -23 -14 -43 -26 -49 -13 -7 -19 -21 -19 -44 0 -18 -9 -45 -20
-59 -11 -14 -20 -39 -20 -56 0 -20 -7 -34 -20 -41 -15 -8 -20 -21 -20 -50 0
-47 -8 -70 -25 -70 -9 0 -16 -20 -21 -57 -4 -32 -13 -62 -21 -68 -7 -5 -16
-35 -20 -65 -3 -30 -12 -59 -20 -65 -7 -5 -16 -35 -20 -65 -3 -30 -12 -59 -19
-65 -7 -5 -17 -42 -24 -82 -7 -44 -17 -74 -26 -77 -10 -4 -14 -23 -14 -63 0
-42 -6 -65 -20 -83 -14 -19 -20 -41 -20 -86 0 -46 -5 -68 -20 -87 -16 -20 -20
-40 -20 -101 0 -58 -4 -77 -16 -84 -20 -11 -33 -75 -34 -166 0 -50 -4 -72 -16
-80 -12 -9 -16 -40 -20 -141 -4 -85 -11 -142 -21 -164 -13 -28 -18 -109 -26
-405 -5 -204 -9 -384 -9 -401 9 -516 22 -804 36 -837 11 -26 16 -70 16 -145 1
-127 14 -253 28 -262 5 -3 12 -68 15 -143 4 -116 9 -143 26 -172 18 -28 21
-49 21 -142 0 -88 3 -114 18 -134 13 -19 18 -53 22 -141 4 -92 9 -121 22 -136
15 -16 18 -38 18 -114 0 -73 4 -101 18 -124 13 -21 21 -59 25 -122 3 -51 12
-107 20 -125 8 -18 18 -78 21 -132 3 -57 11 -108 19 -120 9 -13 16 -66 20
-144 3 -82 10 -130 20 -145 10 -16 16 -77 21 -242 4 -131 11 -225 18 -232 32
-39 36 -733 4 -820 -9 -26 -17 -101 -22 -200 -5 -113 -11 -163 -20 -174 -8 -9
-17 -47 -20 -85 -4 -41 -12 -74 -21 -80 -7 -7 -16 -35 -20 -64 -3 -28 -12 -54
-19 -57 -7 -2 -16 -23 -19 -45 -5 -28 -13 -42 -26 -45 -14 -4 -19 -14 -19 -39
0 -21 -8 -42 -20 -54 -11 -11 -20 -30 -20 -43 0 -12 -9 -30 -20 -40 -11 -9
-20 -29 -20 -43 0 -17 -6 -28 -19 -31 -13 -3 -22 -17 -26 -44 -4 -22 -12 -39
-20 -39 -7 0 -16 -16 -19 -35 -4 -19 -16 -39 -26 -45 -11 -6 -20 -20 -20 -30
0 -11 -6 -20 -13 -20 -7 0 -19 -16 -27 -35 -8 -19 -20 -35 -27 -35 -7 0 -13
-9 -13 -19 0 -11 -9 -23 -20 -26 -11 -3 -20 -15 -20 -26 0 -10 -7 -19 -15 -19
-9 0 -19 -10 -24 -22 -5 -13 -18 -32 -30 -42 -11 -11 -21 -25 -21 -32 0 -7 -9
-18 -20 -24 -11 -6 -20 -17 -20 -25 0 -8 -7 -15 -15 -15 -9 0 -18 -7 -22 -16
-7 -20 -62 -74 -74 -74 -5 0 -9 -9 -9 -20 0 -13 -7 -20 -20 -20 -13 0 -20 -7
-20 -20 0 -13 -7 -20 -20 -20 -13 0 -20 -7 -20 -20 0 -13 -7 -20 -20 -20 -11
0 -20 -4 -20 -9 0 -12 -54 -67 -74 -74 -9 -4 -16 -13 -16 -22 0 -8 -6 -15 -14
-15 -8 0 -28 -11 -44 -25 -17 -14 -37 -25 -46 -25 -9 0 -16 -8 -16 -20 0 -13
-7 -20 -19 -20 -10 0 -21 -9 -24 -20 -4 -15 -14 -20 -40 -20 -27 0 -37 -5 -42
-20 -5 -15 -15 -20 -38 -20 -20 0 -39 -8 -49 -19 -9 -11 -36 -22 -66 -26 -28
-4 -56 -13 -63 -21 -17 -21 -451 -21 -472 0 -8 8 -38 18 -67 22 -32 4 -59 14
-69 25 -9 12 -29 19 -49 19 -25 0 -35 5 -39 20 -4 16 -14 20 -43 20 -29 0 -39
4 -43 20 -4 15 -14 20 -37 20 -24 0 -33 5 -37 20 -3 11 -16 23 -29 26 -13 3
-24 12 -24 19 0 8 -14 16 -30 20 -17 4 -35 15 -40 26 -6 10 -20 19 -30 19 -11
0 -20 6 -20 14 0 8 -9 18 -20 21 -11 3 -20 13 -20 22 0 8 -9 17 -20 20 -11 3
-20 12 -20 19 0 8 -8 18 -17 21 -10 4 -24 15 -31 25 -7 10 -20 18 -28 18 -8 0
-14 8 -14 19 0 10 -9 21 -20 24 -11 3 -20 12 -20 20 0 8 -9 17 -20 20 -11 3
-20 12 -20 20 0 8 -9 17 -20 20 -11 3 -20 12 -20 20 0 8 -9 17 -20 20 -12 3
-20 14 -20 26 0 14 -6 21 -20 21 -13 0 -20 7 -20 20 0 11 -7 20 -15 20 -9 0
-19 8 -22 18 -4 9 -17 30 -30 45 -13 16 -23 35 -23 43 0 8 -6 14 -13 14 -8 0
-19 11 -25 25 -6 14 -16 25 -22 25 -5 0 -10 6 -10 14 0 8 -11 28 -25 44 -14
17 -25 37 -25 46 0 9 -8 16 -20 16 -12 0 -20 7 -20 16 0 9 -9 27 -20 41 -11
14 -20 35 -20 45 0 11 -9 22 -20 25 -13 3 -20 14 -20 29 0 13 -9 29 -20 36
-11 7 -20 20 -20 29 0 9 -9 24 -19 33 -11 10 -23 31 -26 46 -3 16 -12 31 -19
33 -8 3 -17 22 -20 42 -5 25 -14 39 -27 42 -14 4 -19 14 -19 37 0 20 -7 35
-20 44 -14 8 -20 23 -20 46 0 25 -5 35 -20 39 -15 4 -20 14 -20 41 0 25 -6 38
-20 46 -14 7 -20 21 -20 43 0 21 -7 36 -19 44 -13 8 -21 29 -26 62 -4 32 -12
51 -20 51 -7 0 -15 18 -19 44 -4 24 -13 46 -20 49 -7 3 -16 29 -20 58 -5 35
-14 57 -27 67 -14 9 -19 25 -19 57 0 34 -5 47 -20 55 -16 9 -20 21 -20 65 0
44 -4 56 -20 65 -16 9 -20 21 -20 64 0 38 -6 61 -20 79 -15 18 -20 40 -20 81
0 44 -4 57 -19 65 -14 8 -19 26 -24 82 -3 39 -12 79 -20 88 -9 9 -17 51 -21
101 -4 51 -12 89 -20 95 -8 6 -15 46 -20 109 -5 77 -11 102 -24 112 -14 10
-18 35 -22 137 -4 88 -9 129 -20 142 -11 14 -16 77 -24 299 -11 342 -11 433 0
886 8 278 13 360 24 380 11 18 16 76 20 215 4 158 8 194 23 216 14 21 18 57
23 185 5 113 11 166 21 182 10 17 16 68 20 175 4 88 10 155 16 159 14 8 26
117 26 236 1 50 5 92 9 92 21 0 32 58 32 171 0 90 4 129 17 157 12 27 18 79
22 200 5 124 9 165 20 171 14 9 16 31 24 274 4 106 4 107 -20 107 -16 0 -23
-6 -23 -19 0 -11 -9 -23 -20 -26 -11 -3 -20 -12 -20 -20 0 -8 -9 -17 -20 -20
-11 -3 -20 -13 -20 -20 0 -8 -8 -19 -19 -24 -10 -6 -22 -22 -25 -35 -3 -14
-15 -30 -26 -36 -11 -6 -20 -20 -20 -30 0 -13 -7 -20 -20 -20 -13 0 -20 -7
-20 -20 0 -13 -7 -20 -20 -20 -13 0 -20 -7 -20 -20 0 -10 -9 -24 -20 -30 -11
-6 -20 -17 -20 -24 0 -7 -9 -21 -20 -31 -11 -10 -20 -26 -20 -35 0 -9 -11 -22
-25 -28 -14 -6 -25 -18 -25 -27 0 -8 -7 -15 -15 -15 -8 0 -15 -7 -15 -15 0 -8
-8 -19 -19 -24 -10 -6 -22 -22 -25 -35 -3 -14 -15 -30 -26 -36 -11 -6 -20 -20
-20 -30 0 -12 -7 -20 -16 -20 -9 0 -18 -9 -21 -20 -3 -10 -14 -22 -24 -25 -10
-4 -19 -14 -19 -23 0 -10 -9 -23 -20 -30 -11 -7 -20 -19 -20 -27 0 -8 -11 -25
-25 -37 -14 -12 -25 -28 -25 -35 0 -7 -7 -13 -15 -13 -8 0 -17 -11 -21 -25 -3
-14 -12 -25 -20 -25 -8 0 -14 -6 -14 -13 0 -7 -11 -23 -25 -35 -14 -12 -25
-31 -25 -43 0 -12 -8 -23 -20 -26 -11 -3 -20 -14 -20 -24 0 -12 -7 -19 -20
-19 -13 0 -20 -7 -20 -19 0 -10 -7 -22 -15 -25 -9 -3 -21 -19 -27 -36 -5 -17
-19 -35 -29 -41 -10 -5 -19 -15 -19 -22 0 -7 -9 -18 -20 -25 -11 -7 -20 -19
-20 -27 0 -8 -7 -15 -15 -15 -8 0 -15 -9 -15 -19 0 -11 -9 -26 -20 -34 -10 -7
-24 -25 -29 -40 -6 -15 -17 -27 -26 -27 -8 0 -15 -9 -15 -20 0 -13 -7 -20 -20
-20 -15 0 -20 -7 -20 -25 0 -16 -6 -25 -15 -25 -9 0 -18 -13 -22 -31 -4 -20
-14 -34 -29 -40 -14 -5 -24 -17 -24 -29 0 -11 -7 -20 -15 -20 -8 0 -15 -7 -15
-15 0 -8 -9 -19 -19 -25 -11 -5 -22 -23 -26 -39 -3 -17 -14 -31 -26 -34 -11
-3 -19 -14 -19 -26 0 -12 -6 -21 -15 -21 -9 0 -20 -11 -25 -25 -5 -14 -14 -25
-20 -25 -5 0 -16 -15 -23 -32 -8 -18 -21 -39 -30 -47 -10 -7 -17 -20 -17 -27
0 -8 -6 -14 -14 -14 -8 0 -18 -9 -21 -20 -3 -11 -13 -20 -21 -20 -8 0 -14 -9
-14 -19 0 -11 -11 -33 -25 -49 -14 -17 -25 -35 -25 -41 0 -6 -7 -11 -15 -11
-9 0 -20 -11 -24 -24 -5 -13 -17 -26 -25 -29 -9 -4 -16 -15 -16 -26 0 -11 -8
-28 -18 -38 -11 -10 -22 -26 -25 -35 -4 -10 -13 -18 -22 -18 -8 0 -15 -4 -15
-10 0 -5 -8 -17 -19 -27 -10 -10 -22 -33 -26 -50 -3 -18 -12 -33 -19 -33 -7 0
-18 -11 -24 -25 -6 -14 -16 -25 -22 -25 -5 0 -10 -6 -10 -14 0 -8 -11 -28 -25
-44 -14 -17 -25 -37 -25 -46 0 -9 -8 -16 -20 -16 -13 0 -20 -7 -20 -19 0 -10
-9 -30 -20 -44 -11 -14 -20 -32 -20 -41 0 -9 -6 -16 -13 -16 -16 0 -77 -91
-77 -114 0 -9 -7 -16 -15 -16 -8 0 -15 -7 -15 -15 0 -8 -9 -22 -19 -32 -11
-10 -22 -30 -26 -45 -4 -15 -16 -30 -26 -33 -10 -4 -19 -15 -19 -26 0 -10 -9
-28 -20 -39 -11 -11 -20 -28 -20 -39 0 -10 -9 -21 -20 -24 -15 -4 -20 -14 -20
-37 0 -24 -5 -33 -20 -37 -11 -3 -23 -16 -26 -28 -3 -13 -12 -26 -19 -29 -7
-2 -16 -19 -20 -36 -4 -17 -13 -34 -20 -37 -8 -2 -17 -19 -21 -36 -3 -18 -15
-40 -25 -50 -11 -10 -19 -23 -19 -30 0 -7 -9 -20 -20 -30 -11 -9 -20 -26 -20
-38 0 -12 -8 -23 -20 -26 -15 -4 -20 -14 -20 -38 0 -24 -5 -34 -20 -38 -13 -3
-20 -14 -20 -31 0 -14 -11 -37 -25 -52 -14 -15 -25 -31 -25 -36 0 -6 -9 -21
-20 -35 -11 -14 -20 -34 -20 -43 0 -10 -7 -20 -14 -23 -8 -3 -18 -22 -22 -41
-3 -20 -12 -36 -19 -36 -8 0 -16 -17 -20 -39 -4 -27 -13 -41 -26 -44 -14 -4
-19 -14 -19 -40 0 -26 -5 -36 -20 -40 -15 -4 -20 -14 -20 -40 0 -27 -5 -37
-20 -42 -15 -5 -20 -15 -20 -40 0 -24 -5 -35 -19 -40 -13 -4 -22 -19 -26 -45
-4 -24 -12 -40 -20 -40 -9 0 -16 -17 -21 -45 -4 -27 -12 -45 -19 -45 -8 0 -16
-17 -20 -39 -4 -22 -13 -42 -21 -45 -7 -3 -17 -23 -20 -45 -4 -22 -15 -48 -25
-57 -11 -9 -19 -27 -19 -39 0 -12 -9 -34 -20 -48 -11 -14 -20 -39 -20 -55 0
-22 -6 -32 -20 -37 -15 -5 -20 -15 -20 -40 0 -20 -11 -50 -25 -71 -14 -20 -25
-48 -25 -61 0 -13 -6 -26 -14 -29 -8 -3 -18 -24 -22 -47 -3 -23 -13 -46 -20
-52 -8 -5 -17 -34 -21 -62 -4 -34 -11 -53 -19 -53 -8 0 -16 -19 -20 -51 -4
-33 -13 -55 -25 -62 -13 -8 -19 -24 -19 -47 0 -23 -7 -42 -20 -53 -14 -12 -20
-29 -20 -62 0 -34 -5 -47 -20 -55 -16 -9 -20 -21 -20 -65 0 -44 -3 -55 -19
-60 -19 -6 -31 -43 -31 -96 0 -18 -5 -29 -14 -29 -13 0 -26 -48 -26 -102 0
-17 -5 -28 -14 -28 -13 0 -26 -48 -26 -99 0 -14 -7 -32 -15 -41 -8 -9 -18 -44
-21 -77 -5 -48 -11 -62 -25 -66 -16 -4 -19 -15 -19 -65 0 -44 -5 -66 -20 -85
-14 -18 -20 -40 -20 -79 0 -41 -5 -58 -20 -71 -16 -13 -20 -29 -20 -77 0 -45
-5 -68 -20 -88 -13 -17 -22 -51 -26 -92 -4 -36 -13 -72 -20 -81 -8 -8 -17 -51
-20 -95 -4 -46 -13 -86 -21 -96 -9 -9 -17 -48 -20 -95 -3 -43 -12 -88 -20
-101 -8 -13 -17 -61 -20 -107 -5 -64 -10 -89 -24 -101 -16 -14 -19 -32 -19
-111 0 -80 -3 -99 -20 -120 -17 -22 -20 -41 -20 -120 0 -70 -4 -102 -17 -126
-13 -23 -19 -64 -23 -148 -4 -95 -9 -121 -23 -137 -16 -17 -20 -44 -24 -164
-4 -106 -9 -147 -20 -160 -12 -13 -16 -59 -20 -210 -3 -141 -9 -204 -20 -233
-28 -73 -34 -2014 -30 -9500 l4 -7150 23 -70 c47 -146 123 -263 228 -349 28
-22 311 -192 629 -375 1314 -761 3746 -2166 7583 -4381 2236 -1291 4461 -2576
4945 -2856 484 -280 918 -524 965 -544 85 -35 85 -35 240 -35 154 0 155 0 240
35 47 19 373 201 725 404 987 569 4783 2761 7950 4591 5835 3372 5413 3125
5486 3196 82 81 135 161 176 269 l32 85 1 8093 c0 7933 0 8092 -19 8092 -24 0
-31 19 -31 89 0 32 -6 77 -14 102 -9 28 -16 109 -19 226 -4 148 -8 188 -23
215 -13 26 -19 69 -24 193 -5 117 -11 170 -23 197 -13 28 -17 66 -17 152 0 98
-3 121 -20 148 -17 28 -20 51 -20 144 0 93 -3 115 -19 135 -14 19 -19 49 -24
131 -4 66 -11 116 -20 130 -9 14 -17 63 -21 122 -3 62 -11 105 -20 115 -8 10
-16 52 -19 109 -3 54 -12 103 -20 115 -8 12 -16 59 -20 105 -3 56 -11 91 -23
110 -13 19 -20 54 -24 114 -4 62 -11 92 -23 106 -13 14 -17 37 -17 91 0 58 -4
78 -20 98 -16 20 -20 41 -20 99 0 61 -3 75 -18 83 -15 8 -20 27 -25 91 -4 48
-12 87 -20 95 -8 8 -17 47 -21 92 -4 43 -13 85 -20 93 -7 8 -16 47 -20 85 -3
45 -11 74 -21 81 -9 7 -15 27 -15 50 0 53 -18 114 -36 121 -10 4 -14 23 -14
74 0 57 -4 72 -20 86 -16 14 -20 30 -20 74 0 41 -5 63 -20 82 -14 18 -20 40
-20 80 0 40 -5 58 -19 71 -12 11 -20 37 -25 78 -3 34 -13 69 -21 78 -8 9 -15
30 -15 46 -1 40 -17 106 -28 113 -5 3 -12 30 -15 60 -4 30 -13 61 -22 71 -8 9
-15 27 -15 39 0 37 -21 110 -36 122 -9 7 -14 31 -14 63 0 40 -4 54 -20 64 -16
10 -20 23 -20 63 0 36 -5 55 -16 64 -11 7 -18 32 -22 66 -2 31 -12 62 -22 74
-10 11 -21 46 -25 78 -4 33 -12 60 -20 63 -7 3 -15 30 -19 64 -4 34 -12 60
-20 63 -8 3 -16 30 -20 66 -5 40 -11 61 -20 61 -9 0 -15 19 -19 56 -4 41 -11
60 -26 71 -16 11 -21 25 -21 63 0 39 -4 52 -20 60 -16 9 -20 21 -20 65 0 45
-3 55 -20 60 -16 5 -20 15 -20 55 0 38 -4 52 -19 59 -13 7 -21 27 -26 66 -3
30 -12 58 -19 62 -7 5 -16 27 -19 51 -3 24 -12 51 -20 60 -8 9 -18 35 -22 57
-3 22 -13 47 -20 55 -7 8 -16 36 -19 62 -5 32 -14 51 -27 58 -14 8 -19 21 -19
50 0 48 -8 70 -26 70 -10 0 -14 12 -14 39 0 23 -8 48 -20 64 -12 15 -20 40
-20 62 0 28 -5 38 -19 42 -14 4 -21 18 -26 60 -4 31 -12 56 -20 59 -7 3 -16
23 -20 45 -4 21 -12 42 -19 46 -7 5 -16 30 -19 57 -4 27 -13 54 -21 60 -7 6
-16 26 -20 44 -3 19 -15 45 -26 59 -11 14 -20 41 -20 59 0 23 -6 37 -20 44
-15 8 -20 21 -20 50 0 28 -4 40 -15 40 -9 0 -16 14 -20 38 -12 71 -15 82 -30
82 -9 0 -16 16 -21 45 -3 26 -12 45 -19 45 -7 0 -15 18 -18 41 -3 22 -12 48
-21 58 -8 9 -18 36 -22 59 -4 24 -12 42 -19 42 -8 0 -16 18 -20 40 -4 24 -14
44 -26 50 -12 7 -19 21 -19 41 0 17 -9 42 -20 56 -11 15 -20 41 -20 60 0 26
-5 36 -20 40 -16 4 -20 14 -20 43 0 29 -5 40 -19 45 -13 4 -22 19 -26 45 -4
22 -12 40 -20 40 -7 0 -15 17 -18 42 -3 23 -12 45 -20 50 -8 4 -18 28 -22 53
-3 26 -12 48 -20 51 -7 3 -16 21 -19 40 -4 18 -16 38 -26 44 -14 8 -20 21 -20
46 0 27 -5 37 -20 41 -15 4 -20 14 -20 40 0 26 -5 36 -20 40 -16 4 -20 14 -20
45 0 31 -4 41 -19 45 -13 3 -22 17 -26 44 -4 22 -12 39 -20 39 -7 0 -15 17
-19 40 -4 25 -12 40 -21 40 -9 0 -16 16 -21 45 -5 35 -10 45 -25 45 -15 0 -19
7 -19 36 0 27 -5 37 -20 41 -16 4 -20 14 -20 43 0 29 -4 39 -20 43 -15 4 -20
14 -20 40 0 26 -5 36 -20 40 -15 4 -20 14 -20 40 0 27 -5 37 -20 42 -14 4 -22
19 -26 46 -4 21 -12 39 -19 39 -7 0 -16 16 -19 36 -4 19 -13 37 -21 40 -8 3
-17 22 -21 41 -4 23 -13 37 -25 40 -11 3 -19 14 -19 27 0 12 -9 29 -20 39 -11
9 -20 27 -20 39 0 13 -9 29 -20 36 -12 7 -20 23 -20 41 0 20 -6 30 -20 34 -15
4 -20 14 -20 40 0 26 -5 36 -19 40 -11 3 -22 17 -26 36 -4 18 -13 35 -21 38
-8 3 -14 11 -14 18 0 7 -9 23 -19 37 -11 13 -23 36 -26 50 -4 15 -15 28 -26
31 -14 4 -19 14 -19 40 0 26 -5 36 -20 40 -11 3 -20 14 -20 25 0 10 -9 27 -20
37 -11 10 -20 28 -20 40 0 14 -8 25 -20 28 -15 4 -20 14 -20 37 0 22 -5 33
-18 37 -10 2 -24 16 -31 31 -26 57 -53 102 -61 102 -5 0 -11 14 -15 30 -4 17
-15 36 -26 43 -10 6 -19 19 -19 28 0 9 -9 19 -20 22 -15 4 -20 14 -20 37 0 23
-5 33 -20 37 -13 3 -20 14 -20 29 0 14 -6 24 -14 24 -15 0 -26 21 -26 51 0 12
-7 19 -20 19 -11 0 -20 7 -20 15 0 8 -9 24 -20 35 -11 11 -23 34 -27 50 -3 17
-12 30 -19 30 -8 0 -14 6 -14 14 0 7 -11 21 -25 30 -16 10 -25 26 -25 42 0 13
-7 27 -16 31 -8 3 -20 16 -25 29 -4 13 -15 24 -24 24 -9 0 -15 9 -15 23 0 13
-9 32 -20 42 -11 10 -20 26 -20 37 0 11 -7 18 -20 18 -11 0 -20 6 -20 14 0 8
-8 21 -19 28 -10 7 -22 28 -25 46 -4 17 -13 32 -20 32 -7 0 -18 11 -24 25 -6
14 -18 25 -27 25 -8 0 -15 9 -15 19 0 10 -7 21 -15 24 -8 4 -21 22 -29 42 -8
19 -20 35 -25 35 -6 0 -11 7 -11 16 0 9 -9 18 -20 21 -11 3 -20 14 -20 25 0
11 -9 22 -20 25 -11 3 -20 11 -20 19 0 7 -9 18 -19 24 -11 5 -22 23 -26 40 -4
17 -15 35 -26 40 -10 6 -19 17 -19 25 0 8 -9 15 -20 15 -13 0 -20 7 -20 20 0
13 -7 20 -20 20 -13 0 -20 7 -20 20 0 11 -6 20 -14 20 -8 0 -17 9 -21 19 -3
11 -26 41 -50 68 -25 26 -45 53 -45 60 0 7 -9 17 -20 23 -11 6 -20 17 -20 24
0 8 -9 16 -20 19 -11 3 -20 12 -20 21 0 9 -8 16 -20 16 -13 0 -20 7 -20 20 0
13 -7 20 -20 20 -13 0 -20 7 -20 19 0 11 -9 23 -20 26 -11 3 -20 13 -20 22 0
8 -9 17 -20 20 -11 3 -20 12 -20 20 0 8 -9 17 -20 20 -11 3 -20 12 -20 20 0 8
-9 17 -20 20 -11 3 -20 13 -20 23 0 10 -9 20 -20 23 -11 3 -20 12 -20 20 0 9
-8 18 -18 22 -11 3 -33 24 -50 48 -17 23 -49 62 -72 86 -22 25 -40 48 -40 52
0 4 -9 11 -20 14 -11 3 -20 13 -20 22 0 8 -9 17 -20 20 -11 3 -20 11 -20 19 0
7 -9 18 -20 24 -11 6 -20 17 -20 25 0 8 -9 15 -20 15 -13 0 -20 7 -20 19 0 10
-9 21 -20 24 -11 3 -20 12 -20 20 0 8 -9 17 -20 20 -11 3 -20 12 -20 20 0 8
-9 17 -20 20 -12 3 -20 14 -20 26 0 14 -6 21 -19 21 -11 0 -23 9 -26 20 -3 11
-12 20 -20 20 -8 0 -17 9 -20 20 -3 11 -13 20 -21 20 -8 0 -14 7 -14 15 0 9
-11 20 -24 24 -13 5 -26 19 -29 30 -3 12 -12 21 -20 21 -8 0 -17 9 -20 20 -3
11 -12 20 -20 20 -8 0 -17 9 -20 20 -3 11 -12 20 -21 20 -9 0 -16 8 -16 19 0
10 -9 21 -20 24 -11 3 -20 12 -20 20 0 8 -9 17 -20 20 -11 3 -20 12 -20 20 0
8 -9 17 -20 20 -11 3 -20 12 -20 20 0 9 -9 19 -20 22 -11 3 -20 10 -20 15 0 8
-143 160 -312 331 l-96 98 -12 -30 c-17 -41 -5 -232 17 -274 12 -22 18 -70 22
-185 4 -110 10 -162 21 -180 10 -18 16 -69 20 -181 4 -117 9 -161 20 -174 11
-13 16 -56 20 -170 4 -120 8 -155 21 -167 13 -13 17 -49 22 -178 4 -113 10
-168 20 -183 10 -16 16 -73 20 -199 4 -122 10 -185 20 -205 10 -20 16 -86 20
-228 5 -165 10 -210 27 -257 18 -52 20 -82 20 -307 0 -189 4 -277 17 -358 22
-138 25 -683 4 -748 -8 -25 -15 -128 -19 -275 -6 -198 -10 -239 -24 -260 -13
-19 -19 -58 -24 -150 -4 -75 -12 -133 -20 -145 -8 -12 -16 -61 -20 -110 -4
-50 -13 -100 -21 -113 -8 -13 -17 -56 -20 -95 -4 -52 -11 -77 -24 -90 -14 -13
-19 -32 -19 -77 0 -48 -4 -64 -20 -77 -16 -14 -20 -30 -20 -74 0 -42 -5 -60
-19 -73 -12 -11 -20 -35 -23 -73 -3 -36 -10 -58 -21 -64 -8 -5 -18 -27 -22
-48 -4 -22 -15 -57 -26 -78 -10 -20 -19 -48 -19 -60 0 -13 -6 -26 -14 -29 -8
-3 -17 -27 -21 -54 -4 -27 -13 -54 -21 -61 -8 -6 -17 -29 -20 -49 -4 -26 -12
-40 -25 -43 -14 -4 -19 -14 -19 -40 0 -27 -5 -37 -20 -42 -15 -5 -20 -15 -20
-45 0 -29 -4 -39 -20 -43 -15 -4 -20 -14 -20 -41 0 -29 -4 -36 -19 -36 -15 0
-21 -10 -26 -40 -4 -24 -12 -40 -20 -40 -8 0 -17 -15 -21 -34 -3 -19 -15 -42
-25 -52 -10 -9 -19 -23 -19 -31 0 -7 -6 -13 -14 -13 -8 0 -17 -15 -21 -36 -4
-24 -13 -38 -26 -41 -11 -3 -19 -14 -19 -25 0 -11 -9 -22 -20 -25 -11 -3 -20
-14 -20 -24 0 -11 -9 -28 -20 -39 -11 -11 -20 -27 -20 -36 0 -9 -9 -18 -20
-21 -10 -3 -22 -14 -25 -24 -4 -10 -13 -19 -21 -19 -8 0 -14 -7 -14 -15 0 -8
-9 -20 -20 -27 -11 -7 -20 -18 -20 -25 0 -6 -11 -25 -25 -41 -14 -17 -25 -35
-25 -41 0 -6 -9 -11 -20 -11 -12 0 -20 -7 -20 -16 0 -9 -9 -18 -20 -21 -11 -3
-20 -10 -20 -17 0 -11 -62 -76 -73 -76 -5 0 -43 -30 -78 -62 -10 -10 -26 -18
-34 -18 -8 0 -15 -9 -15 -19 0 -12 -9 -21 -25 -25 -14 -4 -25 -13 -25 -21 0
-8 -7 -15 -15 -15 -8 0 -22 -9 -32 -19 -10 -11 -30 -22 -45 -26 -15 -4 -30
-16 -33 -26 -4 -10 -15 -19 -26 -19 -10 0 -28 -9 -39 -20 -11 -11 -29 -20 -40
-20 -11 0 -20 -6 -20 -14 0 -16 -21 -26 -53 -26 -12 0 -28 -9 -35 -20 -8 -13
-23 -20 -45 -20 -21 0 -36 -7 -44 -19 -7 -11 -29 -21 -56 -25 -25 -4 -47 -13
-50 -20 -3 -8 -30 -16 -65 -20 -33 -4 -66 -13 -72 -21 -8 -10 -32 -15 -69 -16
-86 -1 -162 -14 -171 -30 -8 -11 -65 -15 -321 -17 -299 -3 -313 -2 -355 18
-26 13 -73 24 -119 27 -50 4 -75 10 -75 18 0 8 -23 16 -62 20 -35 4 -79 16
-98 26 -19 11 -46 19 -61 19 -14 0 -34 9 -44 20 -12 13 -31 20 -56 20 -28 0
-41 5 -49 20 -8 14 -21 20 -45 20 -24 0 -37 6 -45 20 -8 14 -21 20 -45 20 -23
0 -35 5 -35 14 0 16 -21 26 -56 26 -17 0 -24 6 -24 19 0 14 -10 20 -39 25 -21
3 -41 12 -44 20 -3 8 -22 18 -41 22 -21 3 -36 12 -36 20 0 7 -11 16 -25 20
-13 3 -27 15 -30 25 -4 13 -16 19 -37 19 -21 0 -31 6 -35 20 -3 11 -14 20 -25
20 -11 0 -22 9 -25 20 -3 11 -14 20 -24 20 -11 0 -28 9 -39 20 -11 11 -27 20
-35 20 -8 0 -15 7 -15 15 0 9 -11 21 -25 27 -14 6 -25 17 -25 25 0 7 -7 13
-15 13 -8 0 -20 9 -27 20 -7 11 -17 20 -23 20 -5 0 -31 20 -56 44 -25 23 -53
46 -63 49 -9 4 -16 13 -16 22 0 8 -7 15 -16 15 -9 0 -18 9 -21 19 -3 11 -15
21 -27 23 -13 2 -22 11 -24 26 -2 12 -10 22 -19 22 -8 0 -17 9 -20 20 -3 11
-12 20 -19 20 -8 0 -14 4 -14 10 0 5 -13 25 -30 43 -16 19 -30 39 -30 43 0 5
-9 15 -20 22 -11 7 -20 19 -20 27 0 8 -6 15 -14 15 -8 0 -18 9 -21 20 -3 11
-13 20 -21 20 -8 0 -14 9 -14 20 0 12 -10 24 -24 29 -15 6 -25 20 -29 40 -4
18 -13 31 -22 31 -9 0 -15 9 -15 25 0 18 -5 25 -20 25 -13 0 -20 7 -20 19 0
11 -9 26 -19 33 -11 8 -23 26 -26 41 -4 15 -13 27 -21 27 -8 0 -14 8 -14 18 0
11 -9 27 -19 36 -11 10 -23 31 -26 47 -4 16 -12 29 -20 29 -7 0 -16 16 -20 36
-4 24 -13 38 -26 41 -11 3 -19 14 -19 28 0 12 -9 30 -20 40 -11 10 -20 26 -20
37 0 10 -9 27 -20 38 -11 11 -20 31 -20 44 0 16 -7 27 -20 31 -14 4 -20 15
-20 34 0 15 -9 38 -19 50 -11 12 -23 40 -26 62 -4 22 -13 43 -20 45 -8 3 -16
23 -20 45 -4 21 -12 42 -19 46 -7 5 -16 23 -19 41 -4 19 -16 45 -27 59 -12 16
-20 41 -20 64 0 28 -5 41 -20 49 -16 8 -20 21 -20 60 0 39 -4 52 -20 60 -16 9
-20 21 -20 64 0 45 -3 54 -20 59 -16 4 -20 14 -20 44 -1 21 -8 56 -16 78 -9
22 -20 69 -26 104 -5 35 -15 73 -22 85 -8 11 -17 57 -20 100 -4 47 -13 84 -20
90 -9 7 -16 45 -19 104 -4 69 -11 102 -26 128 -18 30 -21 52 -21 155 0 94 -4
133 -20 180 -20 59 -21 79 -18 618 3 463 5 560 17 581 11 17 17 72 21 178 3
93 10 156 17 160 16 10 33 103 33 179 0 47 4 69 15 77 11 8 17 40 21 116 4 66
12 111 20 121 9 9 16 53 20 110 4 54 12 100 20 109 7 9 16 55 19 110 5 67 12
103 25 121 13 18 19 49 21 111 3 62 9 91 21 104 12 14 17 43 20 110 2 70 7 94
21 108 13 13 17 34 17 89 0 54 5 82 20 110 14 25 23 66 27 120 3 52 11 86 19
93 9 7 16 44 21 105 4 58 11 98 19 104 8 6 16 46 20 105 4 53 13 105 21 117 8
12 17 61 20 112 5 70 10 94 24 107 16 14 19 32 19 101 0 64 5 92 20 120 15 29
20 57 20 118 0 61 5 89 20 118 16 29 20 56 20 128 0 71 5 100 21 137 17 36 23
74 27 162 3 75 10 123 19 137 11 16 16 69 20 195 3 126 9 185 21 218 15 40 17
112 17 666 0 523 -2 624 -14 638 -11 13 -17 65 -23 193 -6 130 -12 179 -22
187 -9 7 -15 41 -19 103 -3 70 -9 100 -26 126 -16 26 -21 50 -21 103 0 57 -4
73 -20 87 -15 13 -20 29 -20 71 0 38 -6 60 -20 79 -14 18 -20 40 -20 77 0 42
-3 53 -19 57 -14 3 -20 17 -25 56 -3 29 -12 57 -20 62 -7 6 -17 29 -20 52 -4
23 -13 44 -20 46 -7 3 -16 28 -20 57 -4 29 -13 53 -21 56 -7 3 -16 23 -20 45
-4 23 -14 43 -26 49 -12 7 -19 21 -19 38 0 15 -9 35 -20 45 -11 9 -20 28 -20
42 0 14 -9 34 -20 45 -11 11 -20 31 -20 44 0 15 -7 27 -19 31 -12 4 -21 19
-25 45 -4 24 -12 40 -20 40 -8 0 -17 15 -20 36 -4 19 -13 37 -21 40 -7 3 -16
21 -20 40 -3 19 -13 38 -21 41 -7 3 -14 11 -14 17 0 7 -11 22 -25 34 -14 12
-25 33 -25 46 0 16 -7 27 -20 31 -11 3 -20 13 -20 21 0 8 -9 23 -20 34 -11 11
-20 29 -20 41 0 12 -8 23 -20 26 -11 3 -20 11 -20 19 0 7 -8 19 -19 26 -10 7
-22 24 -26 38 -4 14 -14 32 -21 40 -7 8 -21 24 -32 36 -10 11 -21 28 -25 37
-3 9 -13 17 -21 17 -8 0 -20 16 -26 36 -7 19 -18 38 -26 41 -8 3 -14 12 -14
20 0 8 -9 17 -20 20 -11 3 -20 14 -20 24 0 12 -7 19 -19 19 -12 0 -21 9 -25
25 -4 14 -13 25 -21 25 -8 0 -15 5 -15 11 0 7 -9 21 -20 33 -51 55 -80 88 -80
92 0 3 -15 20 -33 38 -19 19 -37 41 -40 50 -4 9 -13 16 -22 16 -8 0 -15 7 -15
15 0 9 -11 20 -25 25 -14 5 -25 16 -25 24 0 7 -9 16 -20 19 -11 3 -20 12 -20
20 0 8 -9 17 -20 20 -11 3 -20 12 -20 21 0 9 -4 16 -10 16 -5 0 -40 29 -77 65
-37 36 -78 68 -90 71 -13 4 -23 13 -23 21 0 8 -9 17 -20 20 -11 3 -20 12 -20
19 0 8 -8 18 -17 21 -10 4 -24 15 -31 25 -7 10 -20 18 -28 18 -8 0 -14 7 -14
15 0 8 -7 15 -15 15 -9 0 -18 7 -21 15 -8 19 -90 75 -110 75 -7 0 -14 7 -14
16 0 9 -9 18 -20 21 -10 3 -22 14 -25 24 -4 10 -13 19 -20 19 -8 0 -19 9 -25
19 -5 11 -23 22 -40 26 -17 4 -35 15 -40 26 -6 10 -17 19 -25 19 -8 0 -15 7
-15 15 0 8 -6 15 -14 15 -7 0 -25 11 -40 25 -15 14 -35 25 -45 25 -10 0 -21 9
-24 20 -3 12 -14 20 -26 20 -12 0 -21 6 -21 14 0 15 -21 26 -52 26 -11 0 -22
8 -25 18 -5 20 -83 72 -107 72 -9 0 -16 5 -16 11 0 5 -15 16 -33 24 -19 8 -39
21 -47 29 -7 9 -20 16 -30 16 -10 0 -20 9 -23 20 -4 15 -14 20 -37 20 -23 0
-33 5 -37 20 -3 13 -14 20 -29 20 -13 0 -33 9 -44 20 -11 11 -27 20 -35 20 -8
0 -19 9 -25 20 -6 10 -26 22 -45 26 -19 3 -35 12 -35 19 0 8 -17 16 -40 20
-24 4 -40 12 -40 21 0 8 -15 16 -40 20 -25 4 -40 12 -40 21 0 7 -14 16 -30 20
-17 3 -35 14 -41 24 -5 11 -20 19 -32 19 -12 0 -30 9 -40 20 -9 11 -28 20 -41
20 -15 0 -26 7 -29 20 -4 15 -14 20 -42 20 -28 0 -38 5 -42 19 -3 12 -17 21
-38 25 -18 4 -35 13 -38 20 -3 8 -24 17 -46 21 -24 4 -41 12 -41 20 0 7 -16
16 -36 19 -19 4 -37 13 -40 21 -3 7 -23 16 -44 20 -26 4 -40 13 -43 26 -4 14
-14 19 -36 19 -20 0 -35 7 -43 20 -8 12 -24 20 -40 20 -17 0 -33 8 -40 20 -7
11 -23 20 -35 20 -32 0 -53 10 -53 26 0 8 -16 16 -40 20 -23 4 -40 12 -40 19
0 8 -18 16 -41 20 -22 4 -43 13 -46 21 -3 8 -23 17 -44 20 -22 4 -39 12 -39
19 0 8 -17 16 -40 20 -26 4 -41 13 -45 26 -5 14 -16 19 -46 19 -27 0 -39 4
-39 14 0 16 -21 26 -54 26 -13 0 -35 9 -49 20 -18 15 -40 20 -81 20 -48 0 -56
-3 -56 -19z m2079 -2858 c15 -16 30 -36 34 -45 3 -10 13 -18 22 -18 8 0 15 -7
15 -16 0 -9 9 -18 20 -21 11 -3 20 -14 20 -24 0 -11 7 -19 16 -19 9 0 18 -9
21 -20 3 -10 14 -22 24 -25 10 -4 19 -12 19 -20 0 -8 9 -17 20 -20 11 -3 20
-13 20 -20 0 -8 9 -19 20 -25 11 -6 20 -17 20 -25 0 -8 9 -19 20 -25 11 -6 23
-22 26 -35 3 -13 15 -27 25 -30 10 -4 19 -15 19 -25 0 -10 9 -22 20 -25 11 -3
20 -13 20 -20 0 -8 8 -19 19 -24 10 -6 21 -24 24 -41 4 -18 13 -30 22 -30 9 0
15 -9 15 -25 0 -18 5 -25 20 -25 13 0 20 -7 20 -18 0 -10 11 -33 25 -52 14
-19 25 -40 25 -47 0 -7 6 -13 14 -13 8 0 17 -15 20 -34 4 -22 13 -36 26 -39
14 -3 20 -14 20 -31 0 -14 9 -34 20 -43 11 -10 20 -24 20 -31 0 -8 9 -25 20
-39 11 -14 20 -36 20 -48 0 -12 9 -30 20 -40 11 -10 20 -28 20 -41 0 -32 10
-54 25 -54 7 0 16 -19 19 -45 4 -27 12 -45 20 -45 8 0 15 -19 19 -52 4 -29 13
-58 21 -63 7 -6 17 -31 21 -55 4 -25 15 -54 25 -65 10 -12 20 -42 22 -74 4
-35 11 -57 22 -63 12 -7 16 -24 16 -67 0 -43 5 -65 20 -84 16 -20 20 -40 20
-98 0 -54 4 -77 17 -91 12 -14 19 -50 26 -141 6 -90 13 -127 25 -141 16 -16
17 -80 17 -730 0 -652 -2 -714 -17 -745 -12 -23 -20 -70 -24 -155 -5 -85 -12
-133 -25 -163 -14 -31 -19 -66 -19 -132 0 -73 -4 -97 -20 -123 -16 -26 -20
-51 -20 -116 0 -63 -5 -91 -20 -119 -15 -29 -20 -57 -20 -116 0 -63 -4 -83
-21 -106 -15 -21 -21 -49 -26 -120 -4 -59 -11 -98 -20 -107 -9 -9 -16 -47 -20
-106 -4 -58 -11 -97 -19 -103 -8 -6 -16 -46 -20 -105 -5 -74 -11 -99 -25 -113
-16 -14 -19 -33 -19 -98 0 -66 -4 -86 -20 -106 -16 -21 -20 -41 -20 -105 0
-58 -5 -86 -17 -105 -13 -19 -20 -55 -23 -119 -4 -68 -10 -98 -23 -112 -13
-14 -17 -37 -17 -105 0 -73 -3 -90 -20 -107 -16 -16 -21 -39 -26 -117 -4 -58
-12 -107 -21 -121 -9 -15 -17 -62 -20 -120 -4 -56 -12 -106 -20 -118 -8 -13
-16 -63 -19 -125 -5 -77 -11 -111 -24 -130 -14 -20 -19 -50 -21 -142 -3 -91
-8 -120 -19 -127 -12 -8 -16 -52 -21 -242 -4 -151 -11 -249 -20 -278 -18 -61
-18 -586 0 -680 7 -36 16 -195 21 -355 6 -228 11 -299 23 -330 12 -29 16 -76
17 -172 0 -112 3 -133 16 -141 13 -7 19 -34 26 -118 5 -69 14 -113 22 -119 7
-6 15 -42 19 -88 3 -47 12 -86 20 -95 8 -10 17 -48 21 -85 5 -48 12 -73 26
-87 15 -15 20 -34 20 -75 0 -43 4 -59 20 -72 15 -13 20 -30 20 -68 0 -38 5
-55 20 -68 15 -12 20 -29 20 -62 0 -32 6 -51 20 -65 14 -14 20 -33 20 -64 0
-34 4 -45 18 -48 14 -4 20 -18 25 -59 4 -29 13 -56 21 -61 7 -4 17 -28 20 -52
4 -24 13 -47 20 -49 8 -3 17 -28 21 -55 5 -38 11 -51 26 -55 14 -4 19 -14 19
-41 0 -25 6 -38 20 -46 14 -7 20 -21 20 -43 0 -20 8 -39 20 -50 11 -9 20 -27
20 -41 0 -13 8 -34 18 -47 9 -13 27 -44 38 -69 63 -134 83 -170 93 -170 5 0
11 -17 15 -39 4 -27 12 -40 26 -44 14 -4 20 -14 20 -35 0 -22 6 -32 20 -37 13
-4 20 -15 20 -31 0 -13 9 -32 20 -41 11 -10 20 -23 20 -30 0 -7 11 -23 25 -37
14 -14 25 -32 25 -41 0 -8 9 -25 20 -37 12 -13 27 -30 35 -39 8 -8 18 -30 21
-47 4 -18 13 -32 20 -32 8 0 14 -7 14 -15 0 -8 11 -22 25 -31 16 -10 25 -26
25 -41 0 -16 7 -27 20 -30 11 -3 20 -14 20 -25 0 -11 9 -22 20 -25 11 -3 20
-11 20 -19 0 -7 11 -25 25 -40 14 -15 25 -35 25 -45 0 -11 6 -19 14 -19 8 0
18 -9 21 -20 3 -11 13 -20 21 -20 8 0 14 -7 14 -15 0 -8 9 -19 20 -25 11 -6
20 -16 20 -22 0 -5 14 -26 30 -45 17 -18 30 -38 30 -43 0 -6 7 -10 15 -10 8 0
15 -8 15 -19 0 -10 9 -21 20 -24 12 -3 20 -14 20 -26 0 -14 6 -21 19 -21 11 0
23 -9 26 -20 3 -11 12 -20 20 -20 8 0 17 -9 20 -20 3 -11 13 -20 21 -20 8 0
14 -6 14 -12 0 -15 63 -78 77 -78 6 0 13 -9 16 -20 3 -11 12 -20 21 -20 9 0
16 -6 16 -14 0 -8 9 -18 20 -21 11 -3 20 -15 20 -26 0 -12 7 -19 19 -19 11 0
23 -9 26 -20 3 -11 13 -20 22 -20 8 0 17 -9 20 -20 3 -11 9 -20 15 -20 5 0 27
-18 50 -40 23 -22 51 -43 62 -46 12 -4 27 -15 34 -25 7 -11 20 -19 28 -19 8 0
14 -6 14 -13 0 -8 11 -19 25 -25 14 -6 25 -18 25 -27 0 -8 7 -15 15 -15 8 0
24 -9 35 -20 11 -11 28 -20 39 -20 10 0 21 -9 24 -20 3 -12 14 -20 26 -20 12
0 21 -6 21 -15 0 -8 15 -21 33 -28 17 -8 38 -21 46 -30 7 -10 20 -17 28 -17 7
0 16 -6 19 -14 3 -8 17 -17 32 -21 15 -4 35 -15 45 -26 10 -10 24 -19 32 -19
8 0 15 -6 15 -14 0 -15 21 -26 52 -26 11 0 22 -8 25 -20 4 -14 14 -20 34 -20
18 0 34 -8 41 -20 7 -11 21 -20 31 -20 11 0 32 -11 49 -25 16 -14 35 -25 43
-25 7 0 18 -6 24 -14 7 -8 27 -18 44 -22 17 -3 36 -13 42 -21 6 -8 30 -17 54
-20 23 -3 45 -12 48 -19 3 -8 22 -17 43 -20 26 -4 40 -12 43 -25 4 -14 14 -19
41 -19 23 0 43 -7 56 -20 13 -13 33 -20 60 -20 29 0 42 -5 50 -20 8 -16 21
-20 60 -20 38 0 52 -5 63 -20 10 -15 30 -22 68 -27 30 -3 59 -12 65 -19 6 -8
40 -17 75 -20 35 -4 71 -13 80 -21 9 -8 49 -16 90 -20 47 -3 78 -11 86 -20 9
-11 51 -17 182 -22 117 -6 175 -12 186 -21 22 -19 373 -19 430 -1 25 8 138 16
299 21 201 6 260 11 267 21 6 10 42 16 120 20 81 5 116 11 123 21 6 8 37 18
69 22 33 3 65 12 72 20 8 7 35 16 62 20 30 4 55 14 66 26 12 14 29 20 61 20
36 0 46 4 51 20 5 16 15 20 46 20 27 0 39 4 39 14 0 16 21 26 54 26 13 0 31 9
41 20 10 11 24 20 32 20 19 0 116 51 125 66 4 6 23 15 42 18 19 4 36 13 39 20
3 8 20 17 38 21 19 4 33 15 36 26 3 10 13 19 22 19 9 0 27 9 41 20 14 11 33
20 42 20 9 0 20 9 23 20 3 11 15 20 25 20 11 0 24 9 30 19 5 11 23 22 40 26
16 4 30 13 30 21 0 8 7 14 15 14 8 0 19 9 25 20 6 11 17 20 25 20 7 0 27 11
43 25 17 14 34 25 40 25 5 0 12 9 15 20 3 11 12 20 20 20 9 0 19 9 22 20 3 11
13 20 20 20 8 0 19 9 25 20 6 11 17 20 25 20 8 0 15 7 15 15 0 9 11 20 25 25
14 5 25 13 25 18 0 5 24 25 53 45 28 21 63 52 76 70 13 17 41 46 61 62 20 17
54 54 75 83 21 28 42 52 47 52 4 0 8 7 8 15 0 9 11 20 25 25 14 5 25 16 25 25
0 8 7 15 15 15 8 0 17 11 21 25 3 14 12 25 20 25 8 0 14 7 14 15 0 9 11 21 25
27 14 6 25 17 25 23 0 7 9 24 20 38 11 14 20 32 20 41 0 9 7 16 15 16 9 0 20
11 25 25 5 14 16 25 25 25 9 0 15 9 15 25 0 14 11 34 25 47 14 12 25 28 25 35
0 7 7 13 15 13 8 0 15 9 15 19 0 11 10 32 23 48 13 15 26 36 30 46 3 9 13 17
22 17 9 0 15 9 15 24 0 35 10 56 26 56 8 0 14 7 14 16 0 9 9 27 20 41 11 14
20 33 20 42 0 9 9 22 20 29 13 8 20 23 20 43 0 22 5 32 19 36 13 3 22 17 26
44 4 22 12 39 20 39 8 0 16 17 20 40 4 24 12 40 20 40 9 0 16 17 20 44 5 32
12 46 26 49 14 4 19 14 19 37 0 18 7 38 16 44 8 7 18 31 21 55 4 26 13 47 24
54 13 8 19 24 19 47 0 23 7 42 20 53 13 11 20 29 20 51 0 43 9 66 25 66 12 0
25 42 25 83 0 11 7 25 15 31 8 6 18 34 21 61 4 28 13 55 20 61 8 6 17 38 20
72 5 47 11 61 25 65 16 4 19 15 19 65 0 46 4 63 20 77 16 14 20 31 20 78 0 43
5 66 17 80 12 12 20 43 24 93 4 48 12 80 22 92 13 14 17 38 17 95 0 60 3 78
16 85 19 11 33 78 33 169 1 44 5 64 16 70 11 7 16 38 21 128 4 70 13 128 20
140 8 12 17 76 22 157 6 106 12 142 25 156 11 12 17 36 17 69 0 84 18 107 40
53 7 -16 19 -30 26 -30 8 0 14 -10 14 -25 0 -15 6 -25 15 -25 10 0 17 -14 21
-40 5 -29 11 -40 24 -40 13 0 20 -11 25 -40 4 -23 12 -40 20 -40 7 0 16 -16
19 -36 4 -19 14 -38 22 -41 7 -3 14 -11 14 -18 0 -6 11 -24 25 -39 14 -15 25
-38 25 -50 0 -15 7 -26 20 -29 15 -4 20 -14 20 -37 0 -23 5 -33 20 -37 16 -4
20 -14 20 -43 0 -29 4 -39 20 -43 14 -3 20 -14 20 -31 0 -14 9 -35 19 -45 10
-10 22 -30 26 -43 4 -12 13 -30 20 -38 8 -8 17 -27 20 -43 4 -15 11 -29 15
-32 5 -3 18 -25 30 -50 12 -25 26 -45 31 -45 5 0 9 -9 9 -21 0 -11 9 -32 20
-46 11 -14 20 -32 20 -40 0 -8 9 -26 20 -40 11 -14 20 -36 20 -48 0 -12 9 -30
20 -40 11 -10 20 -27 20 -38 0 -10 9 -32 20 -47 11 -16 23 -43 27 -60 3 -17
12 -34 19 -37 7 -2 15 -22 19 -44 4 -22 12 -39 20 -39 8 0 16 -17 20 -40 4
-26 13 -41 26 -45 14 -5 19 -16 19 -45 0 -29 4 -39 20 -43 15 -4 20 -14 20
-36 0 -18 9 -40 20 -51 11 -11 20 -33 20 -48 0 -16 9 -37 20 -47 12 -11 20
-31 20 -51 0 -21 7 -38 19 -46 11 -8 22 -30 26 -51 4 -20 13 -37 20 -37 7 0
15 -18 18 -41 3 -22 12 -46 20 -52 8 -7 18 -33 21 -59 5 -34 12 -49 27 -53 14
-5 19 -15 19 -45 0 -29 4 -39 20 -43 15 -4 20 -14 20 -41 0 -23 7 -43 20 -56
13 -13 20 -33 20 -61 0 -32 4 -42 20 -46 16 -4 20 -14 20 -43 0 -28 5 -39 19
-43 13 -3 20 -18 25 -56 4 -29 13 -54 20 -57 8 -3 17 -25 20 -49 4 -24 13 -45
20 -48 7 -3 16 -28 20 -56 5 -36 12 -54 26 -61 14 -7 20 -21 20 -45 0 -21 6
-37 16 -43 11 -6 18 -27 22 -61 3 -37 10 -55 23 -62 13 -7 19 -21 19 -47 0
-24 7 -46 20 -60 13 -14 20 -35 20 -60 0 -30 4 -41 19 -45 14 -3 20 -18 25
-60 5 -34 13 -57 22 -61 8 -3 14 -18 14 -33 0 -15 8 -42 18 -58 11 -17 22 -48
26 -70 4 -22 16 -48 27 -58 13 -12 19 -31 19 -62 0 -34 5 -47 20 -55 16 -8 20
-21 20 -60 0 -39 4 -52 20 -60 15 -8 20 -21 20 -49 0 -23 8 -48 20 -64 12 -14
20 -40 20 -61 0 -22 7 -43 18 -54 11 -11 22 -41 25 -67 4 -27 13 -56 21 -64 7
-9 16 -38 20 -66 3 -27 12 -55 20 -60 7 -6 16 -36 20 -69 6 -45 12 -59 27 -63
16 -4 19 -15 19 -59 0 -43 4 -56 20 -66 16 -10 20 -24 20 -70 0 -43 4 -58 14
-58 18 0 26 -22 26 -72 0 -24 8 -49 19 -64 11 -13 22 -48 26 -77 4 -28 13 -59
20 -67 7 -8 16 -41 20 -72 3 -32 12 -61 19 -65 7 -5 16 -31 19 -58 3 -28 13
-64 21 -80 8 -17 18 -56 21 -88 5 -42 11 -60 26 -67 15 -9 19 -22 19 -63 0
-36 6 -60 20 -77 14 -18 20 -41 20 -82 0 -43 4 -59 17 -66 13 -8 18 -28 21
-78 3 -49 10 -74 22 -86 11 -11 20 -40 24 -86 4 -44 12 -72 20 -75 9 -4 16
-33 21 -82 4 -47 12 -78 19 -81 8 -3 16 -34 20 -81 3 -46 11 -80 20 -87 8 -7
16 -40 19 -83 4 -54 11 -77 26 -92 17 -17 21 -34 21 -88 0 -52 5 -74 20 -93
15 -19 20 -41 20 -93 0 -53 4 -75 20 -94 16 -20 20 -41 20 -98 0 -55 4 -78 19
-96 13 -17 20 -50 25 -114 4 -54 12 -94 20 -100 8 -6 15 -46 19 -105 5 -61 12
-99 20 -105 9 -7 16 -45 20 -114 4 -67 12 -112 22 -127 9 -14 15 -47 16 -86 0
-87 13 -158 30 -169 10 -6 15 -38 17 -121 3 -86 8 -123 23 -154 15 -32 19 -62
19 -155 0 -88 4 -121 17 -144 13 -23 18 -68 22 -196 5 -126 10 -170 21 -184
11 -14 15 -46 15 -133 l0 -115 -653 -377 c-359 -208 -659 -385 -665 -393 -7
-9 -340 -206 -742 -438 -743 -429 -3956 -2282 -4319 -2491 l-200 -115 -18 33
c-10 19 -18 47 -18 62 0 16 -7 37 -15 48 -8 10 -15 33 -15 50 0 16 -7 39 -15
50 -8 10 -15 35 -15 55 0 23 -6 39 -15 43 -10 3 -15 19 -15 45 0 25 -5 41 -15
45 -9 3 -15 18 -15 39 0 19 -7 40 -15 47 -8 7 -15 25 -15 40 0 15 -7 33 -15
40 -8 7 -15 24 -15 39 0 14 -7 35 -15 45 -8 11 -15 32 -15 47 0 15 -7 29 -15
33 -8 3 -15 17 -15 31 0 15 -7 33 -15 41 -8 9 -15 28 -15 44 0 16 -7 30 -15
34 -9 3 -15 18 -15 35 0 16 -6 31 -15 35 -8 3 -15 16 -15 29 0 14 -7 30 -15
37 -8 7 -15 25 -15 40 0 16 -7 30 -15 34 -8 3 -15 17 -15 31 0 14 -7 28 -15
31 -8 4 -15 16 -15 29 0 12 -7 28 -15 35 -8 7 -15 23 -15 35 0 13 -7 25 -15
29 -8 3 -15 17 -15 31 0 14 -4 25 -10 25 -5 0 -13 12 -16 27 -4 15 -13 34 -21
41 -7 7 -13 22 -13 32 0 10 -7 20 -15 24 -8 3 -15 13 -15 21 0 9 -7 23 -15 31
-8 9 -15 24 -15 34 0 10 -7 20 -15 24 -8 3 -15 17 -15 31 0 16 -6 25 -15 25
-10 0 -15 10 -15 30 0 20 -5 30 -15 30 -8 0 -15 8 -15 19 0 10 -7 24 -15 31
-8 7 -15 18 -15 25 0 7 -7 18 -15 25 -8 7 -15 20 -15 30 0 10 -7 20 -15 24 -8
3 -15 14 -15 25 0 11 -6 24 -13 28 -7 4 -21 26 -32 48 -11 22 -26 44 -32 48
-7 4 -13 17 -13 28 0 11 -7 22 -15 25 -8 4 -15 12 -15 19 0 7 -7 18 -15 25 -8
7 -15 21 -15 31 0 11 -6 19 -13 19 -7 0 -21 20 -32 45 -11 25 -26 45 -32 45
-7 0 -13 9 -13 20 0 11 -4 20 -10 20 -5 0 -12 11 -16 25 -3 14 -12 25 -20 25
-8 0 -14 9 -14 20 0 11 -4 20 -10 20 -5 0 -12 11 -16 25 -3 14 -11 25 -18 25
-6 0 -20 19 -31 43 -11 23 -29 51 -40 62 -11 11 -27 32 -34 47 -8 15 -22 36
-31 46 -9 10 -34 42 -55 72 -21 30 -41 57 -45 60 -4 3 -24 30 -45 60 -21 30
-45 61 -52 69 -8 8 -22 26 -31 40 -22 34 -31 46 -64 82 -16 16 -28 34 -28 39
0 5 -6 13 -13 17 -7 4 -20 20 -30 35 -9 15 -31 41 -47 58 -17 17 -30 33 -30
35 0 5 -9 16 -55 66 -8 9 -15 19 -15 22 0 4 -18 25 -40 47 -22 22 -40 43 -40
48 0 4 -16 24 -35 45 -19 21 -35 40 -35 43 0 2 -25 29 -55 59 -30 31 -55 59
-55 63 0 4 -16 24 -35 45 -19 21 -35 40 -35 43 0 2 -25 29 -55 59 -30 31 -55
57 -55 59 0 5 -58 73 -97 113 -18 19 -33 36 -33 38 0 2 -31 36 -70 75 -38 39
-70 75 -70 80 0 6 -7 10 -15 10 -8 0 -15 4 -15 10 0 9 -59 77 -127 147 -18 19
-33 38 -33 43 0 6 -5 10 -11 10 -6 0 -30 21 -52 47 -23 26 -63 69 -89 96 -27
26 -48 52 -48 57 0 6 -7 10 -15 10 -8 0 -15 7 -15 15 0 8 -7 15 -15 15 -8 0
-15 4 -15 9 0 9 -78 97 -162 183 -27 27 -48 53 -48 58 0 6 -7 10 -15 10 -8 0
-15 7 -15 15 0 8 -7 15 -15 15 -8 0 -15 7 -15 15 0 8 -7 15 -15 15 -8 0 -15 4
-15 9 0 5 -40 51 -90 101 -49 50 -90 96 -90 101 0 5 -7 9 -15 9 -8 0 -15 7
-15 15 0 8 -7 15 -15 15 -8 0 -15 4 -15 9 0 10 -41 58 -107 128 -24 24 -43 48
-43 53 0 6 -7 10 -15 10 -8 0 -15 7 -15 15 0 8 -7 15 -15 15 -8 0 -15 4 -15
10 0 5 -34 44 -75 85 -41 42 -75 81 -75 86 0 5 -7 9 -15 9 -8 0 -15 5 -15 10
0 6 -8 18 -17 28 -10 10 -43 46 -73 81 -30 35 -83 92 -117 128 -35 35 -63 66
-63 69 0 2 -8 12 -17 23 -30 30 -73 83 -73 87 0 2 -22 26 -48 52 -27 27 -57
63 -68 80 -10 18 -22 32 -26 32 -4 0 -8 7 -8 15 0 8 -7 15 -15 15 -8 0 -15 5
-15 10 0 6 -10 21 -22 33 -30 29 -68 83 -68 97 0 5 -7 10 -15 10 -8 0 -15 7
-15 15 0 8 -7 15 -15 15 -8 0 -15 6 -15 14 0 8 -3 16 -7 18 -12 5 -53 66 -53
78 0 5 -7 10 -15 10 -8 0 -15 7 -15 15 0 8 -7 15 -15 15 -8 0 -15 7 -15 15 0
8 -4 15 -10 15 -5 0 -12 11 -16 24 -3 14 -12 27 -20 30 -8 3 -14 12 -14 21 0
8 -7 15 -15 15 -8 0 -15 6 -15 14 0 8 -7 16 -15 20 -8 3 -15 12 -15 21 0 8 -4
15 -10 15 -5 0 -12 11 -16 25 -3 14 -12 25 -20 25 -8 0 -14 7 -14 15 0 8 -4
15 -9 15 -10 0 -34 38 -47 73 -3 9 -12 17 -18 17 -6 0 -20 20 -31 45 -11 25
-26 45 -32 45 -7 0 -13 6 -13 14 0 7 -7 19 -15 26 -8 7 -15 21 -15 31 0 11 -7
19 -15 19 -8 0 -15 6 -15 14 0 8 -7 16 -15 20 -8 3 -15 15 -15 26 0 11 -7 23
-15 26 -8 4 -15 12 -15 19 0 7 -7 15 -15 19 -8 3 -15 15 -15 26 0 11 -7 23
-15 26 -8 4 -15 12 -15 19 0 7 -7 15 -15 19 -8 3 -15 15 -15 26 0 11 -7 23
-15 26 -8 4 -15 12 -15 19 0 7 -7 18 -15 25 -8 7 -15 21 -15 31 0 11 -7 19
-15 19 -8 0 -15 8 -15 19 0 10 -7 24 -15 31 -8 7 -15 18 -15 25 0 7 -7 18 -15
25 -8 7 -15 20 -15 30 0 10 -7 20 -15 24 -8 3 -15 15 -15 26 0 11 -7 23 -15
26 -8 4 -15 14 -15 24 0 10 -7 23 -15 30 -8 7 -15 18 -15 25 0 7 -7 18 -15 25
-8 7 -15 21 -15 31 0 11 -4 19 -9 19 -5 0 -12 14 -16 30 -4 17 -10 30 -15 30
-5 0 -11 13 -15 30 -4 16 -10 30 -15 30 -5 0 -11 14 -15 30 -4 17 -10 30 -15
30 -5 0 -11 14 -15 30 -4 17 -10 30 -15 30 -5 0 -11 14 -15 30 -4 17 -11 30
-16 30 -5 0 -9 5 -9 11 0 9 -13 40 -50 124 -37 83 -50 115 -50 124 0 5 -3 11
-7 13 -5 2 -19 36 -33 76 -13 39 -27 72 -31 72 -4 0 -10 17 -14 38 -4 20 -10
42 -15 47 -4 6 -18 42 -31 80 -12 39 -26 72 -29 75 -4 3 -10 23 -13 45 -4 22
-11 41 -17 43 -5 2 -10 16 -10 30 0 15 -7 40 -15 55 -8 15 -17 45 -21 65 -4
20 -10 42 -14 47 -4 6 -11 29 -15 52 -4 24 -11 45 -15 48 -5 3 -12 30 -15 60
-4 30 -11 55 -15 55 -4 0 -11 27 -15 60 -4 33 -11 62 -15 65 -4 3 -11 32 -15
65 -4 33 -11 62 -15 65 -4 3 -11 36 -15 75 -4 39 -11 72 -15 75 -5 3 -11 43
-15 90 -4 47 -11 85 -15 85 -4 0 -11 46 -15 103 -4 56 -11 107 -15 112 -5 6
-11 91 -15 190 -3 99 -10 196 -15 215 -6 19 -15 271 -21 560 -9 480 -23 961
-27 968 -7 9 -32 -3 -60 -28 -18 -16 -35 -30 -37 -30 -2 0 -32 -27 -65 -60
-33 -33 -63 -60 -66 -60 -5 0 -61 -50 -116 -102 -10 -10 -20 -18 -23 -18 -2 0
-32 -27 -65 -60 -33 -33 -65 -60 -70 -60 -6 0 -10 -7 -10 -15 0 -8 -4 -15 -9
-15 -9 0 -73 -55 -138 -117 -19 -18 -38 -33 -43 -33 -6 0 -10 -7 -10 -15 0 -8
-4 -15 -10 -15 -12 0 -110 -98 -110 -110 0 -6 -7 -10 -15 -10 -8 0 -15 -7 -15
-15 0 -8 -4 -15 -9 -15 -12 0 -351 -339 -351 -351 0 -5 -7 -9 -15 -9 -8 0 -15
-7 -15 -15 0 -8 -7 -15 -15 -15 -8 0 -15 -7 -15 -15 0 -8 -7 -15 -15 -15 -8 0
-15 -7 -15 -15 0 -8 -7 -15 -15 -15 -8 0 -15 -7 -15 -15 0 -8 -7 -15 -15 -15
-8 0 -15 -4 -15 -10 0 -5 -15 -25 -32 -44 -44 -45 -88 -97 -88 -102 0 -3 -20
-25 -45 -50 -25 -24 -45 -48 -45 -52 0 -4 -13 -22 -30 -40 -16 -18 -30 -35
-30 -38 0 -3 -13 -17 -28 -32 -16 -15 -31 -34 -35 -42 -13 -27 -32 -53 -59
-81 -16 -16 -28 -35 -28 -44 0 -9 -7 -18 -15 -21 -8 -4 -15 -13 -15 -20 0 -8
-6 -17 -14 -20 -8 -3 -17 -16 -20 -30 -4 -13 -11 -24 -16 -24 -6 0 -10 -7 -10
-15 0 -9 -7 -18 -15 -21 -8 -4 -15 -12 -15 -19 0 -8 -6 -20 -13 -27 -7 -7 -16
-20 -20 -28 -4 -8 -16 -28 -27 -45 -11 -16 -23 -37 -27 -45 -4 -8 -13 -21 -20
-28 -7 -7 -13 -19 -13 -26 0 -8 -7 -19 -15 -26 -8 -7 -15 -21 -15 -31 0 -11
-4 -19 -9 -19 -9 0 -141 -259 -141 -277 0 -6 -7 -16 -15 -23 -8 -7 -15 -23
-15 -35 0 -12 -7 -28 -15 -35 -8 -7 -15 -23 -15 -35 0 -12 -7 -28 -15 -35 -8
-7 -15 -23 -15 -36 0 -12 -7 -29 -15 -38 -8 -8 -15 -25 -15 -38 0 -13 -7 -32
-15 -42 -8 -11 -15 -32 -15 -47 0 -14 -7 -32 -15 -39 -8 -7 -15 -24 -15 -39 0
-14 -7 -35 -15 -45 -8 -11 -15 -32 -15 -46 0 -14 -7 -35 -15 -46 -8 -10 -15
-38 -15 -61 0 -23 -5 -43 -11 -45 -6 -2 -14 -28 -17 -58 -2 -30 -9 -58 -15
-61 -5 -4 -13 -35 -17 -70 -4 -35 -12 -77 -18 -92 -7 -16 -12 -53 -12 -83 0
-31 -5 -65 -12 -77 -40 -73 -40 -1401 1 -1415 7 -2 11 -30 11 -74 0 -39 6 -84
14 -101 8 -18 16 -59 19 -91 2 -33 9 -62 15 -64 7 -2 12 -26 12 -55 1 -29 7
-63 15 -77 8 -14 14 -41 15 -61 0 -20 7 -56 15 -79 8 -23 15 -55 15 -70 0 -15
7 -41 15 -56 8 -16 15 -40 15 -54 0 -14 7 -38 15 -54 8 -15 15 -40 15 -55 0
-15 7 -36 15 -47 8 -10 15 -33 15 -50 0 -16 7 -39 15 -50 8 -10 15 -31 15 -45
0 -14 7 -34 15 -45 8 -10 15 -32 15 -49 0 -16 7 -39 15 -49 8 -11 15 -31 15
-45 0 -14 7 -35 15 -45 8 -11 15 -31 15 -45 0 -14 7 -35 15 -45 8 -11 15 -29
15 -41 0 -12 7 -30 15 -41 8 -10 15 -31 15 -45 0 -14 7 -34 15 -45 8 -10 15
-28 15 -40 0 -11 7 -29 15 -40 8 -10 15 -30 15 -44 0 -14 7 -34 15 -44 8 -11
15 -30 15 -42 0 -12 7 -27 15 -34 8 -7 15 -25 15 -41 0 -15 7 -34 15 -43 8 -8
15 -26 15 -39 0 -14 7 -30 15 -37 8 -7 15 -22 15 -34 0 -12 7 -31 15 -42 8
-10 15 -29 15 -40 0 -12 7 -27 15 -34 8 -7 15 -25 15 -40 0 -15 7 -33 15 -40
8 -7 15 -23 15 -37 0 -13 7 -26 15 -29 8 -4 15 -17 15 -31 0 -13 7 -31 15 -39
8 -9 15 -26 15 -38 0 -13 7 -29 15 -36 8 -7 15 -23 15 -35 0 -13 7 -25 15 -29
9 -3 15 -18 15 -35 0 -16 6 -31 15 -35 8 -3 15 -16 15 -29 0 -14 7 -30 15 -37
8 -7 15 -25 15 -41 0 -19 5 -29 15 -29 10 0 15 -10 15 -29 0 -16 6 -31 15 -35
8 -3 15 -16 15 -28 0 -13 7 -32 15 -42 8 -11 15 -30 15 -43 0 -13 7 -26 15
-29 9 -4 15 -19 15 -35 0 -19 5 -29 15 -29 10 0 15 -10 15 -29 0 -16 6 -31 15
-35 8 -3 15 -17 15 -31 0 -14 4 -25 9 -25 5 0 13 -14 16 -32 4 -17 14 -38 21
-46 8 -7 14 -24 14 -38 0 -14 7 -27 15 -30 9 -4 15 -19 15 -35 0 -19 5 -29 15
-29 10 0 15 -10 15 -29 0 -16 6 -31 15 -35 8 -3 15 -16 15 -29 0 -14 7 -30 15
-37 8 -7 15 -21 15 -31 0 -10 4 -21 10 -24 5 -3 14 -24 20 -45 6 -22 15 -40
20 -40 6 0 10 -13 10 -30 0 -20 5 -30 15 -30 10 0 15 -10 15 -29 0 -16 6 -31
15 -35 8 -3 15 -16 15 -28 0 -13 7 -32 15 -42 8 -11 15 -30 15 -43 0 -13 7
-26 15 -29 8 -4 15 -18 15 -34 0 -16 7 -30 15 -34 8 -3 15 -16 15 -29 0 -14 7
-30 15 -37 8 -7 15 -23 15 -35 0 -12 7 -28 15 -35 8 -7 15 -23 15 -35 0 -12 7
-28 15 -35 8 -7 15 -21 15 -32 0 -11 7 -26 15 -34 8 -9 15 -26 15 -38 0 -13 7
-29 15 -36 8 -7 15 -23 15 -37 0 -13 7 -31 15 -39 8 -9 15 -31 15 -50 0 -24 5
-34 15 -34 10 0 15 -10 15 -34 0 -18 7 -39 15 -46 8 -7 15 -23 15 -37 0 -13 7
-31 15 -39 8 -9 15 -29 15 -45 0 -17 6 -32 15 -35 9 -4 15 -19 15 -38 0 -18 4
-36 8 -41 5 -6 19 -44 32 -85 12 -41 26 -79 31 -85 4 -5 10 -27 14 -47 4 -21
11 -38 15 -38 4 0 10 -18 14 -40 3 -23 10 -49 15 -58 15 -30 51 -156 51 -179
0 -13 4 -23 9 -23 8 0 22 -74 42 -235 6 -44 16 -105 22 -135 17 -79 17 -714 0
-731 -7 -7 -13 -20 -13 -29 0 -22 -43 -154 -52 -158 -5 -2 -8 -11 -8 -20 -1
-9 -9 -35 -20 -57 -11 -22 -19 -45 -20 -52 0 -6 -3 -13 -7 -15 -5 -1 -19 -24
-33 -50 -13 -27 -28 -48 -31 -48 -4 0 -9 -10 -13 -22 -3 -13 -16 -34 -29 -48
-13 -14 -26 -32 -30 -40 -20 -43 -146 -180 -166 -180 -6 0 -11 -7 -11 -15 0
-8 -7 -15 -15 -15 -8 0 -15 -7 -15 -15 0 -8 -7 -15 -15 -15 -8 0 -15 -4 -15
-9 0 -10 -38 -34 -72 -47 -10 -3 -18 -11 -18 -18 0 -6 -20 -20 -45 -31 -24
-10 -47 -25 -49 -32 -3 -7 -17 -13 -31 -13 -16 0 -25 -6 -25 -15 0 -10 -10
-15 -29 -15 -16 0 -31 -6 -35 -15 -3 -8 -16 -15 -28 -15 -13 0 -32 -7 -42 -15
-11 -8 -32 -15 -47 -15 -15 0 -29 -7 -33 -15 -3 -10 -19 -15 -43 -15 -21 0
-47 -7 -57 -15 -11 -8 -39 -15 -62 -15 -23 0 -58 -7 -77 -15 -52 -22 -609 -22
-647 0 -14 8 -50 14 -81 15 -31 0 -70 7 -85 15 -16 8 -48 15 -71 15 -23 0 -43
5 -45 10 -2 6 -28 14 -58 19 -30 5 -56 14 -58 20 -2 6 -18 11 -37 11 -18 0
-38 7 -45 15 -7 8 -25 15 -40 15 -15 0 -33 7 -40 15 -7 8 -23 15 -36 15 -12 0
-29 7 -38 15 -8 8 -26 15 -40 15 -16 0 -26 6 -26 15 0 10 -10 15 -29 15 -16 0
-31 6 -35 15 -3 8 -16 15 -30 15 -13 0 -26 7 -30 15 -3 8 -17 15 -31 15 -16 0
-25 6 -25 15 0 9 -9 15 -25 15 -14 0 -28 7 -31 15 -4 8 -14 15 -24 15 -10 0
-23 7 -30 15 -7 8 -19 15 -26 15 -8 0 -14 4 -14 9 0 5 -10 11 -23 15 -13 3
-36 17 -51 31 -15 14 -31 25 -35 25 -4 0 -19 9 -32 20 -35 29 -41 33 -69 51
-14 9 -36 26 -50 38 -28 23 -32 26 -75 59 -109 84 -404 376 -443 438 -8 13
-65 82 -100 122 -12 13 -22 29 -22 33 0 5 -8 18 -17 28 -41 43 -62 72 -68 91
-4 11 -11 20 -16 20 -5 0 -9 7 -9 15 0 9 -7 18 -15 21 -8 4 -15 12 -15 19 0 8
-6 20 -12 27 -16 18 -35 46 -50 78 -7 14 -18 31 -25 38 -7 7 -13 19 -13 27 0
7 -3 15 -7 17 -5 2 -19 24 -33 51 -13 26 -28 47 -31 47 -4 0 -10 14 -14 30 -4
17 -10 30 -15 30 -5 0 -11 13 -15 30 -4 17 -10 30 -15 30 -5 0 -11 14 -15 30
-4 17 -10 30 -15 30 -5 0 -11 14 -15 30 -4 17 -11 30 -16 30 -5 0 -9 8 -9 18
-1 9 -9 35 -20 57 -11 22 -19 46 -20 53 0 6 -4 12 -9 12 -5 0 -12 14 -16 31
-4 17 -13 42 -21 57 -8 15 -14 35 -14 45 0 9 -4 17 -9 17 -5 0 -12 15 -15 34
-6 31 -23 73 -46 117 -5 9 -12 33 -15 53 -4 20 -11 36 -16 36 -4 0 -11 20 -15
45 -3 25 -10 45 -15 45 -4 0 -11 16 -15 37 -4 20 -13 48 -20 62 -8 14 -14 36
-14 48 0 12 -4 24 -9 28 -6 3 -13 26 -17 50 -3 25 -10 48 -15 51 -5 3 -9 15
-9 27 0 12 -6 34 -14 48 -7 14 -16 42 -20 62 -4 21 -11 37 -16 37 -6 0 -10 13
-10 28 0 16 -7 37 -15 48 -8 10 -15 36 -15 57 0 24 -5 40 -15 43 -10 4 -15 20
-15 45 0 26 -5 42 -15 45 -10 4 -15 20 -15 45 0 26 -5 42 -15 45 -10 4 -15 20
-15 45 0 26 -5 42 -15 45 -8 4 -15 18 -15 33 0 14 -7 35 -15 45 -8 11 -15 30
-15 43 0 15 -8 27 -22 32 -28 11 -38 6 -38 -18 0 -10 -7 -24 -15 -31 -8 -7
-15 -20 -15 -30 0 -10 -7 -23 -15 -30 -8 -7 -15 -20 -15 -30 0 -10 -7 -23 -15
-30 -8 -7 -15 -21 -15 -31 0 -9 -7 -24 -15 -33 -8 -8 -15 -24 -15 -36 0 -11
-7 -23 -15 -26 -8 -4 -15 -17 -15 -30 0 -14 -7 -27 -15 -30 -8 -4 -15 -17 -15
-30 0 -14 -7 -27 -15 -30 -9 -4 -15 -19 -15 -35 0 -19 -5 -29 -15 -29 -10 0
-15 -10 -15 -30 0 -20 -5 -30 -15 -30 -10 0 -15 -10 -15 -30 0 -20 -5 -30 -15
-30 -10 0 -15 -10 -15 -29 0 -16 -6 -31 -15 -35 -8 -3 -15 -16 -15 -30 0 -13
-7 -26 -15 -30 -8 -3 -15 -16 -15 -29 0 -14 -7 -30 -15 -37 -8 -7 -15 -19 -15
-26 0 -8 -13 -40 -30 -71 -16 -31 -30 -64 -30 -75 0 -10 -7 -21 -15 -24 -8 -4
-15 -17 -15 -30 0 -14 -7 -27 -15 -30 -8 -4 -15 -18 -15 -34 0 -16 -7 -30 -15
-34 -8 -3 -15 -16 -15 -29 0 -14 -7 -30 -15 -37 -8 -7 -15 -23 -15 -36 0 -12
-7 -29 -15 -38 -8 -8 -15 -26 -15 -40 0 -16 -6 -26 -15 -26 -10 0 -15 -10 -15
-29 0 -16 -7 -34 -15 -41 -8 -7 -15 -28 -15 -46 0 -19 -4 -34 -10 -34 -5 0
-14 -18 -20 -40 -6 -22 -15 -40 -20 -40 -6 0 -10 -11 -10 -25 0 -14 -7 -28
-15 -31 -8 -4 -15 -18 -15 -34 0 -15 -7 -33 -15 -40 -8 -7 -15 -28 -15 -47 0
-21 -6 -36 -15 -39 -10 -4 -15 -20 -15 -44 0 -21 -7 -43 -15 -50 -8 -7 -15
-29 -15 -49 0 -20 -7 -45 -15 -55 -8 -11 -15 -36 -15 -55 0 -20 -7 -45 -15
-55 -8 -11 -15 -33 -15 -48 0 -16 -7 -45 -15 -65 -8 -19 -15 -50 -15 -67 -1
-17 -7 -42 -15 -56 -8 -14 -15 -45 -15 -70 0 -25 -7 -56 -15 -70 -8 -14 -14
-44 -15 -66 0 -23 -7 -58 -15 -77 -8 -20 -15 -56 -15 -80 0 -25 -7 -64 -15
-87 -8 -23 -15 -66 -15 -96 0 -29 -7 -79 -15 -111 -8 -31 -15 -79 -15 -106 0
-37 -3 -48 -13 -44 -18 7 -4123 2375 -5720 3301 -225 130 -418 236 -429 236
-12 0 -148 73 -302 162 -385 221 -356 201 -356 247 0 21 7 55 16 76 11 27 17
87 21 214 4 124 10 180 19 191 8 10 16 66 22 162 6 116 12 151 25 166 14 15
17 39 17 130 0 91 3 114 17 128 14 13 19 41 23 123 4 78 10 113 23 131 13 18
17 45 17 104 0 65 4 83 20 101 14 15 21 42 26 105 4 50 13 89 20 95 8 6 16 44
20 90 4 44 11 83 17 86 11 8 26 79 27 128 0 19 7 42 15 51 8 9 17 43 21 75 4
34 15 70 26 84 13 17 18 41 18 82 0 48 4 60 20 69 16 9 20 21 20 69 0 45 4 62
20 76 15 13 20 31 20 67 0 35 5 53 21 69 13 13 22 39 26 72 4 29 13 57 20 62
8 6 17 36 20 68 4 37 10 57 19 57 8 0 15 21 20 60 4 35 11 60 18 60 7 0 17 27
24 59 7 34 19 61 27 65 9 3 15 19 15 41 0 22 8 43 20 55 14 14 20 33 20 64 0
35 4 45 20 49 16 4 20 14 20 43 0 24 7 45 21 60 11 12 23 40 26 63 3 23 11 41
18 41 7 0 16 19 19 45 5 28 12 45 21 45 9 0 16 17 20 48 4 26 13 52 20 57 7 6
18 30 24 53 7 25 18 42 26 42 11 0 15 11 15 39 0 31 4 41 20 46 15 5 20 15 20
40 0 24 6 38 20 45 14 8 20 21 20 46 0 27 5 37 19 41 11 3 22 11 25 19 3 8 12
14 19 14 10 0 16 -19 20 -60 4 -33 13 -70 21 -83 7 -12 17 -51 21 -86 3 -35
12 -70 19 -77 7 -7 16 -40 19 -74 4 -39 14 -71 27 -87 15 -19 20 -41 20 -82 0
-44 4 -60 20 -74 15 -13 20 -29 20 -69 0 -37 6 -61 20 -78 14 -18 20 -41 20
-78 0 -44 3 -55 19 -59 14 -4 20 -18 25 -64 4 -35 13 -62 20 -65 8 -3 16 -30
20 -65 5 -39 12 -59 20 -59 8 0 15 -19 19 -52 4 -36 13 -58 27 -70 13 -10 20
-28 20 -50 0 -21 7 -40 20 -51 14 -12 20 -29 20 -61 0 -35 4 -45 20 -49 15 -4
20 -14 20 -41 0 -23 7 -43 20 -56 13 -13 20 -33 20 -56 0 -27 5 -37 19 -41 14
-3 21 -17 26 -49 4 -27 11 -44 20 -44 8 0 16 -17 20 -41 4 -22 13 -43 20 -45
7 -3 16 -21 20 -41 4 -23 13 -37 26 -40 14 -4 19 -14 19 -43 0 -29 4 -39 20
-43 15 -4 20 -14 20 -37 0 -23 5 -33 20 -37 15 -4 20 -14 20 -39 0 -23 6 -37
20 -44 11 -6 20 -20 20 -31 0 -11 7 -22 15 -25 8 -3 20 -21 27 -40 6 -19 17
-34 24 -34 7 0 15 -18 19 -40 4 -25 12 -40 21 -40 8 0 14 -7 14 -15 0 -8 11
-25 25 -37 14 -12 25 -32 25 -44 0 -13 8 -24 20 -27 12 -3 20 -14 20 -26 0
-12 6 -21 15 -21 8 0 17 -14 21 -36 4 -24 13 -38 25 -41 11 -3 19 -14 19 -24
0 -12 7 -19 20 -19 13 0 20 -7 20 -19 0 -11 11 -33 25 -49 14 -17 25 -35 25
-41 0 -6 6 -11 14 -11 8 0 17 -11 20 -25 4 -16 13 -25 26 -25 13 0 20 -7 20
-20 0 -11 4 -20 10 -20 5 0 17 -15 26 -32 9 -18 23 -37 30 -41 8 -4 14 -14 14
-22 0 -8 9 -19 20 -25 11 -6 20 -17 20 -25 0 -8 5 -15 11 -15 12 0 79 -69 79
-82 0 -4 7 -8 15 -8 8 0 15 -7 15 -15 0 -9 11 -20 25 -25 14 -5 25 -16 25 -24
0 -7 9 -16 20 -19 11 -3 20 -12 20 -20 0 -8 9 -17 20 -20 11 -3 20 -14 20 -25
0 -11 9 -22 20 -25 11 -3 20 -12 20 -21 0 -9 8 -16 20 -16 12 0 20 -7 20 -16
0 -9 9 -18 20 -21 11 -3 20 -12 20 -20 0 -8 9 -17 20 -20 11 -3 20 -12 20 -19
0 -8 11 -19 25 -24 14 -5 25 -16 25 -25 0 -8 9 -15 20 -15 13 0 20 -7 20 -20
0 -13 7 -20 20 -20 11 0 20 -6 20 -13 0 -15 78 -77 96 -77 8 0 18 -9 24 -20 6
-11 17 -20 25 -20 8 0 15 -6 15 -14 0 -8 11 -17 24 -20 13 -3 26 -15 29 -26 3
-13 13 -20 31 -20 15 0 31 -8 38 -20 7 -11 20 -20 29 -20 9 0 19 -9 22 -20 4
-15 14 -20 37 -20 22 0 33 -6 37 -17 5 -17 105 -73 129 -73 7 0 14 -6 17 -14
3 -8 21 -17 39 -21 18 -4 41 -14 50 -22 9 -8 34 -17 56 -20 28 -4 42 -11 45
-24 4 -15 14 -19 44 -19 26 0 44 -6 56 -20 12 -14 29 -20 60 -20 30 0 47 -6
60 -20 13 -15 29 -20 67 -20 37 0 55 -5 71 -21 15 -15 38 -22 92 -26 45 -4 79
-12 91 -22 16 -14 62 -16 391 -16 329 0 375 2 391 16 13 11 47 18 104 22 69 5
88 10 102 27 12 15 28 20 68 20 37 0 59 6 77 20 16 12 41 20 64 20 26 0 46 7
59 20 13 13 33 20 60 20 28 0 42 5 49 19 6 10 27 22 46 25 20 4 38 13 41 21 3
7 23 16 45 20 22 4 39 12 39 20 0 8 17 16 40 20 23 4 40 12 40 20 0 7 12 16
27 20 15 3 33 15 41 26 7 10 22 19 34 19 11 0 22 8 25 20 3 11 12 20 20 20 8
0 27 8 41 18 15 10 35 22 45 25 9 4 17 13 17 22 0 8 7 15 15 15 8 0 19 9 25
20 6 11 16 20 21 20 6 0 24 11 41 25 16 14 36 25 44 25 8 0 14 7 14 16 0 9 9
18 19 21 11 3 21 13 24 24 3 11 14 19 26 19 14 0 21 6 21 20 0 13 7 20 20 20
12 0 20 7 20 16 0 9 9 18 20 21 11 3 20 13 20 23 0 11 10 20 25 24 14 4 25 13
25 20 0 8 9 16 20 19 11 3 20 12 20 20 0 8 9 17 20 20 11 3 20 12 20 21 0 9 7
16 15 16 8 0 17 11 21 25 4 16 13 25 25 25 11 0 19 7 19 16 0 9 9 18 20 21 11
3 20 12 20 20 0 8 9 17 20 20 11 3 20 14 20 24 0 11 5 19 10 19 13 0 80 68 80
81 0 5 7 9 15 9 8 0 15 6 15 14 0 8 8 21 18 28 9 7 23 25 29 41 7 15 17 27 23
27 6 0 15 11 20 25 5 14 16 25 25 25 9 0 15 9 15 21 0 12 8 23 20 26 11 3 20
11 20 19 0 7 11 25 25 40 14 15 25 33 25 40 0 8 7 14 15 14 8 0 17 11 21 25 3
14 12 25 20 25 8 0 14 9 14 19 0 11 10 32 23 48 13 15 26 36 30 46 3 9 13 17
22 17 8 0 15 9 15 19 0 30 11 51 26 51 8 0 14 8 14 18 0 11 9 27 20 37 11 10
20 29 20 42 0 16 7 27 19 30 13 3 22 17 26 44 4 24 12 39 21 39 8 0 16 15 20
40 4 24 12 40 20 40 8 0 16 16 20 39 4 22 12 42 20 45 7 3 16 22 20 42 4 24
13 38 25 41 14 4 19 15 19 44 0 28 5 41 20 49 15 8 20 21 20 50 0 28 6 46 20
57 13 12 20 30 20 55 0 26 6 41 20 51 13 9 22 30 26 63 4 27 13 56 20 64 7 9
16 43 20 75 3 33 13 65 21 71 9 8 16 40 20 85 4 46 12 78 20 84 10 8 16 42 20
113 3 56 9 102 13 102 27 0 30 69 30 719 0 643 -4 731 -30 731 -4 0 -9 70 -12
155 -4 118 -9 160 -20 173 -11 12 -17 51 -21 135 -3 77 -10 126 -20 140 -8 14
-16 64 -20 131 -5 70 -12 115 -21 125 -8 10 -16 54 -19 119 -5 82 -10 108 -27
129 -17 21 -20 40 -20 117 0 75 -4 95 -20 116 -16 21 -20 41 -20 124 0 80 -3
103 -17 119 -14 15 -19 44 -23 139 -4 94 -8 122 -21 131 -12 10 -17 41 -22
150 -5 90 -12 145 -21 160 -10 15 -15 74 -20 198 -4 122 -11 188 -21 212 -23
55 -22 1277 0 1331 11 25 18 87 22 188 4 103 10 154 19 163 9 8 16 54 20 127
5 87 10 116 23 126 12 9 17 38 22 109 5 74 10 98 23 105 12 7 16 25 16 81 0
60 3 75 20 90 16 14 20 29 20 83 0 57 3 67 19 71 16 4 21 17 26 62 3 31 13 68
21 83 8 14 17 48 20 75 4 26 12 55 20 63 7 8 16 33 20 55 4 22 15 56 25 75 11
19 19 45 19 57 0 12 9 27 20 33 15 8 20 21 20 50 0 28 6 46 20 57 13 12 20 30
20 55 0 28 5 38 20 43 15 5 20 15 20 42 0 26 5 36 19 40 13 3 21 17 25 45 4
22 16 52 26 66 11 13 20 32 20 41 0 9 9 30 20 46 11 17 20 36 20 43 0 8 9 25
20 39 11 14 20 32 20 40 0 8 9 23 20 35 11 12 20 29 20 38 0 8 9 23 20 33 11
9 20 28 20 42 0 14 8 29 20 35 13 7 20 21 20 40 0 19 6 31 19 35 13 4 22 19
26 45 4 22 12 40 19 40 7 0 18 16 25 35 7 19 16 35 21 35 5 0 11 14 15 30 4
17 12 30 20 30 7 0 16 15 19 34 4 22 13 36 26 39 11 3 20 13 20 22 0 9 9 28
20 42 11 14 20 34 20 43 0 10 9 20 20 23 12 3 20 14 20 27 0 11 11 31 25 44
14 13 25 29 25 35 0 6 6 14 14 17 8 3 18 18 21 34 3 15 15 36 26 46 10 9 19
23 19 31 0 7 7 13 15 13 8 0 15 6 15 13 0 8 11 27 25 43 14 16 25 37 25 47 0
9 7 17 15 17 9 0 20 11 24 24 5 13 17 26 25 29 9 4 16 16 16 27 0 11 11 30 25
42 14 12 25 28 25 35 0 7 6 13 14 13 8 0 18 9 21 20 3 11 10 20 16 20 5 0 15
15 22 33 8 17 21 38 30 46 10 7 17 20 17 27 0 8 7 14 16 14 9 0 18 9 21 20 3
10 14 22 24 25 10 4 19 15 19 26 0 11 7 19 16 19 9 0 18 9 21 20 3 10 14 22
24 25 10 4 19 12 19 19 0 7 11 23 25 36 14 13 25 29 25 36 0 7 9 18 20 24 11
6 20 17 20 25 0 8 7 15 16 15 9 0 18 9 21 20 3 11 12 20 19 20 8 0 19 11 24
25 5 14 16 25 24 25 7 0 16 9 19 20 3 11 12 20 21 20 9 0 16 7 16 15 0 9 11
20 25 25 14 5 25 16 25 25 0 8 7 15 16 15 9 0 18 9 21 20 3 11 12 20 20 20 8
0 17 9 20 20 3 11 12 20 20 20 8 0 17 9 20 20 3 11 9 20 14 20 5 0 33 23 61
51 29 29 70 63 91 77 20 13 37 29 37 33 0 5 7 9 15 9 9 0 20 11 25 25 5 14 16
25 25 25 8 0 15 5 15 10 0 6 11 16 25 22 14 6 25 17 25 25 0 7 7 13 15 13 9 0
19 9 23 21 8 20 28 35 88 63 17 9 34 22 37 31 4 8 13 15 21 15 8 0 18 9 21 20
3 11 15 20 25 20 9 0 20 8 23 19 2 10 17 21 33 25 15 4 34 16 42 27 7 10 20
19 28 19 8 0 14 7 14 15 0 9 9 15 21 15 13 0 23 8 26 21 4 12 17 22 35 26 16
3 33 14 39 24 5 11 16 19 25 19 8 0 17 7 21 15 3 9 20 22 37 31 65 31 86 46
86 60 0 7 9 14 20 14 10 0 24 9 30 19 5 11 23 22 40 26 16 4 30 12 30 20 0 7
11 16 24 19 13 3 26 15 29 26 3 13 13 20 31 20 15 0 31 8 38 20 7 11 20 20 29
20 9 0 19 9 22 20 3 12 14 20 25 20 31 0 52 11 52 26 0 8 9 14 19 14 11 0 22
9 26 19 3 11 19 22 34 26 16 3 37 15 47 26 9 10 23 19 31 19 7 0 13 7 13 15 0
8 9 15 20 15 12 0 32 11 46 25 14 14 31 25 39 25 7 0 17 9 20 20 3 11 14 20
24 20 10 0 26 9 36 20 10 11 29 20 42 20 16 0 23 6 23 20 0 12 7 20 16 20 9 0
29 11 46 25 16 14 35 25 43 25 7 0 15 7 19 15 3 8 12 15 20 15 9 0 20 9 26 20
6 10 26 22 45 26 25 4 35 11 35 25 0 11 7 19 15 19 8 0 24 9 35 20 11 11 29
20 41 20 12 0 23 8 26 20 3 11 14 20 24 20 10 0 23 9 29 20 6 12 21 20 36 20
18 0 28 7 31 20 3 11 16 23 29 26 13 3 24 12 24 20 0 8 9 14 19 14 11 0 32 11
47 25 15 14 33 25 40 25 8 0 14 9 14 20 0 15 7 20 25 20 16 0 25 6 25 15 0 9
12 18 30 22 17 3 35 14 41 24 5 11 19 19 29 19 11 0 20 6 20 13 0 15 78 77 96
77 8 0 18 9 24 20 6 11 17 20 26 20 8 0 17 7 20 15 4 8 13 15 20 15 8 0 18 9
22 21 8 20 28 35 90 64 17 8 32 22 32 30 0 8 9 15 20 15 13 0 20 7 20 19 0 11
9 23 20 26 11 3 20 13 20 21 0 8 9 14 21 14 12 0 23 8 26 20 3 11 12 20 20 20
8 0 17 9 20 20 3 11 10 20 16 20 5 0 19 10 31 23 12 12 34 31 48 42 47 36 108
96 108 105 0 6 5 10 10 10 13 0 134 121 180 180 19 25 39 47 43 49 5 2 12 14
17 27 5 13 16 24 25 24 8 0 15 9 15 20 0 11 6 20 13 20 14 0 61 50 70 75 4 8
13 15 21 15 8 0 16 14 20 34 4 21 14 37 25 41 10 3 21 15 24 25 3 11 12 20 21
20 10 0 16 9 16 25 0 15 6 25 14 25 15 0 26 21 26 51 0 10 7 19 15 19 9 0 20
11 25 25 5 14 16 25 24 25 9 0 17 15 21 40 4 23 12 40 20 40 7 0 16 14 20 31
4 17 13 33 20 35 7 3 16 16 19 30 4 13 15 33 26 44 11 11 20 29 20 40 0 10 9
24 20 30 13 7 20 21 20 40 0 17 9 39 20 50 11 11 20 31 20 45 0 14 9 34 20 45
13 13 20 33 20 56 0 27 5 37 19 41 13 3 21 17 25 46 4 23 13 49 21 57 8 9 18
39 22 66 3 27 12 54 20 59 7 6 17 39 21 74 6 42 15 67 26 73 12 7 16 24 16 66
0 41 6 64 20 82 15 19 20 41 20 97 0 55 4 76 18 89 13 14 18 41 22 128 4 79
10 120 23 143 14 27 17 60 17 205 0 139 4 186 19 238 14 49 20 118 26 275 4
116 9 213 12 218 7 12 13 9 42 -20z m-1758 -12729 c4 -28 11 -60 18 -72 6 -11
11 -43 11 -69 0 -28 6 -58 15 -69 8 -10 15 -40 15 -66 0 -26 4 -49 9 -53 5 -3
13 -30 16 -60 4 -31 11 -58 15 -60 5 -3 12 -30 15 -60 4 -31 11 -58 16 -60 4
-3 11 -27 15 -53 3 -26 10 -51 14 -57 7 -9 17 -45 43 -160 6 -27 14 -52 18
-55 4 -3 10 -21 13 -40 4 -19 11 -44 16 -55 5 -11 18 -53 30 -94 13 -40 29
-85 36 -100 8 -14 14 -36 14 -48 0 -13 4 -23 9 -23 5 0 12 -14 16 -31 4 -17
13 -42 21 -57 8 -15 14 -35 14 -44 0 -10 5 -18 10 -18 6 0 10 -5 10 -11 0 -11
32 -88 55 -132 8 -16 15 -37 15 -48 0 -10 4 -19 9 -19 5 0 12 -13 16 -30 4
-16 10 -30 15 -30 5 0 11 -13 15 -30 4 -16 10 -30 15 -30 5 0 11 -13 15 -30 4
-16 10 -30 15 -30 5 0 11 -13 15 -30 4 -16 11 -30 16 -30 5 0 9 -5 9 -12 0
-13 72 -160 82 -168 3 -3 10 -18 13 -33 4 -15 11 -27 15 -27 5 0 11 -13 15
-30 4 -16 10 -30 15 -30 5 0 11 -13 15 -30 4 -16 10 -30 15 -30 5 0 11 -13 15
-30 4 -16 10 -30 15 -30 5 0 12 -10 16 -22 3 -13 19 -42 35 -66 16 -24 29 -47
29 -53 0 -5 4 -9 9 -9 5 0 12 -13 16 -30 4 -16 10 -30 15 -30 5 0 11 -13 15
-30 4 -16 11 -30 16 -30 5 0 11 -11 15 -24 3 -14 12 -27 20 -30 8 -3 14 -12
14 -21 0 -8 4 -15 9 -15 5 0 12 -13 16 -30 4 -16 11 -30 16 -30 5 0 11 -11 15
-24 3 -14 12 -27 20 -30 8 -3 14 -12 14 -21 0 -8 4 -15 9 -15 5 0 12 -11 15
-25 3 -13 17 -36 31 -51 13 -14 27 -36 31 -47 4 -11 17 -32 30 -46 13 -14 27
-34 30 -44 3 -10 16 -29 29 -43 14 -15 27 -35 31 -47 3 -11 16 -30 28 -41 12
-12 27 -33 34 -48 6 -16 16 -28 22 -28 5 0 10 -5 10 -10 0 -6 11 -23 25 -38
14 -15 28 -36 31 -46 4 -11 16 -29 28 -40 12 -12 33 -37 46 -56 13 -19 28 -40
34 -45 17 -15 76 -93 76 -99 0 -3 8 -15 18 -25 38 -41 62 -73 62 -82 0 -5 5
-9 10 -9 6 0 15 -11 20 -25 5 -14 14 -25 20 -25 5 0 10 -5 10 -10 0 -6 14 -24
30 -40 17 -16 30 -32 30 -35 0 -3 8 -14 18 -24 32 -37 42 -50 42 -61 0 -5 7
-10 15 -10 8 0 15 -5 15 -10 0 -6 20 -31 45 -56 25 -24 45 -48 45 -52 0 -4 14
-22 30 -40 17 -18 30 -37 30 -43 0 -5 7 -9 15 -9 8 0 15 -5 15 -10 0 -6 14
-24 30 -40 17 -16 30 -34 30 -40 0 -5 7 -10 15 -10 8 0 15 -4 15 -10 0 -11 20
-37 63 -82 15 -16 27 -33 27 -38 0 -6 7 -10 15 -10 8 0 15 -5 15 -10 0 -6 20
-31 45 -56 25 -24 45 -49 45 -54 0 -6 7 -10 15 -10 8 0 15 -4 15 -9 0 -10 44
-62 108 -128 23 -24 42 -48 42 -54 0 -5 7 -9 15 -9 8 0 15 -4 15 -10 0 -5 34
-44 75 -85 41 -42 75 -78 75 -80 0 -2 19 -24 43 -48 23 -24 69 -74 102 -112
33 -37 94 -102 135 -144 41 -43 111 -117 155 -166 44 -48 99 -108 123 -132 23
-24 42 -48 42 -54 0 -5 7 -9 15 -9 8 0 15 -7 15 -15 0 -8 7 -15 15 -15 8 0 15
-7 15 -15 0 -8 7 -15 15 -15 8 0 15 -7 15 -15 0 -8 7 -15 15 -15 8 0 15 -7 15
-15 0 -8 7 -15 15 -15 8 0 15 -7 15 -15 0 -8 7 -15 15 -15 8 0 15 -7 15 -15 0
-8 7 -15 15 -15 8 0 15 -4 15 -9 0 -6 28 -38 63 -73 34 -35 87 -92 117 -127
30 -36 70 -80 88 -98 17 -19 32 -38 32 -43 0 -6 7 -10 15 -10 8 0 15 -7 15
-15 0 -8 7 -15 15 -15 8 0 15 -7 15 -15 0 -8 7 -15 15 -15 8 0 15 -7 15 -15 0
-8 7 -15 15 -15 8 0 15 -4 15 -10 0 -5 15 -24 33 -43 17 -18 50 -55 72 -81 22
-27 54 -64 72 -83 18 -18 33 -38 33 -43 0 -6 7 -10 15 -10 8 0 15 -7 15 -15 0
-8 7 -15 15 -15 8 0 15 -4 15 -10 0 -5 8 -18 18 -29 25 -26 72 -83 72 -86 0
-4 47 -60 80 -94 14 -15 50 -58 80 -96 30 -39 65 -80 77 -92 13 -12 23 -24 23
-27 0 -6 26 -39 53 -68 9 -10 17 -21 17 -24 0 -4 11 -17 25 -30 14 -13 25 -25
25 -28 0 -6 26 -39 53 -68 9 -10 17 -21 17 -24 0 -4 11 -17 24 -29 13 -12 27
-31 30 -43 4 -11 13 -23 21 -26 8 -3 15 -11 15 -17 0 -6 11 -22 24 -34 13 -12
27 -31 30 -43 4 -11 13 -23 21 -26 8 -3 15 -10 15 -16 0 -6 11 -23 25 -38 14
-15 28 -36 31 -46 4 -11 17 -29 30 -41 13 -12 24 -27 24 -32 0 -5 9 -18 20
-28 11 -10 20 -24 20 -31 0 -7 3 -14 8 -16 8 -4 52 -65 52 -73 0 -3 11 -18 25
-33 14 -15 28 -36 31 -46 4 -11 10 -24 15 -30 42 -50 49 -61 49 -73 0 -7 5
-13 10 -13 6 0 10 -7 10 -15 0 -8 9 -23 20 -32 11 -10 20 -23 20 -30 0 -7 4
-13 9 -13 5 0 12 -11 15 -25 3 -13 17 -36 31 -51 13 -14 27 -36 31 -47 4 -12
13 -27 20 -35 8 -7 14 -20 14 -28 0 -8 4 -14 9 -14 5 0 14 -12 20 -27 10 -27
30 -62 41 -73 3 -3 16 -27 30 -55 14 -27 28 -52 31 -55 4 -3 10 -16 14 -30 4
-13 14 -30 21 -38 8 -7 14 -22 14 -33 0 -10 4 -19 9 -19 5 0 14 -12 20 -27 5
-16 21 -48 35 -73 13 -25 27 -52 30 -60 3 -8 10 -22 15 -30 26 -46 41 -80 41
-94 0 -9 4 -16 9 -16 5 0 12 -13 16 -30 4 -16 11 -30 16 -30 5 0 9 -5 9 -11 0
-11 32 -88 55 -132 8 -16 15 -37 15 -48 0 -10 4 -19 9 -19 5 0 13 -15 16 -32
4 -18 14 -42 21 -53 8 -11 14 -29 14 -42 0 -12 5 -25 10 -28 6 -3 10 -19 10
-35 0 -16 7 -35 15 -44 8 -8 15 -28 15 -45 0 -16 7 -36 15 -45 8 -8 15 -28 15
-45 0 -16 7 -36 15 -45 8 -8 15 -28 15 -43 0 -16 7 -38 15 -49 8 -10 15 -33
15 -51 0 -17 7 -38 15 -47 8 -8 15 -30 15 -48 0 -19 7 -43 15 -54 8 -10 15
-37 15 -59 0 -22 6 -49 14 -60 7 -11 15 -51 18 -88 2 -41 9 -72 17 -76 14 -9
-74 -67 -145 -97 -53 -22 -1996 -1144 -2010 -1160 -17 -21 -3322 -1929 -3380
-1951 -15 -5 -1189 669 -3299 1896 -478 278 -915 528 -970 556 -55 28 -170 93
-255 143 -85 50 -298 173 -472 274 l-318 183 1 290 c0 233 3 295 14 315 10 17
15 58 15 130 0 76 5 110 15 124 8 11 15 39 15 62 0 34 4 44 21 49 22 7 69 -28
69 -52 0 -7 7 -13 15 -13 8 0 15 -7 15 -15 0 -9 7 -18 15 -21 8 -4 15 -12 15
-20 0 -8 5 -14 10 -14 6 0 15 -11 20 -25 5 -14 14 -25 20 -25 5 0 10 -7 10
-15 0 -9 7 -18 15 -21 8 -4 15 -12 15 -20 0 -8 4 -14 9 -14 5 0 12 -8 15 -17
4 -10 19 -32 34 -49 15 -18 45 -54 67 -80 22 -27 50 -59 63 -72 12 -12 22 -27
22 -32 0 -6 7 -10 15 -10 8 0 15 -4 15 -10 0 -12 307 -320 320 -320 6 0 10 -7
10 -15 0 -8 7 -15 15 -15 8 0 15 -7 15 -15 0 -8 5 -15 10 -15 9 0 48 -31 92
-72 10 -10 20 -18 23 -18 3 0 19 -13 35 -30 16 -16 32 -30 35 -30 3 0 14 -8
24 -17 36 -33 50 -43 60 -43 5 0 11 -7 15 -15 3 -8 12 -15 21 -15 8 0 15 -7
15 -15 0 -8 9 -15 20 -15 11 0 23 -7 26 -15 4 -8 13 -15 20 -15 8 0 17 -6 20
-14 3 -8 16 -17 30 -20 13 -4 24 -11 24 -16 0 -6 7 -10 15 -10 9 0 18 -7 21
-15 4 -8 15 -15 25 -15 11 0 22 -7 25 -15 4 -8 14 -15 24 -15 10 0 20 -7 24
-15 3 -8 15 -15 26 -15 11 0 23 -6 26 -14 3 -8 16 -17 30 -20 13 -4 24 -11 24
-16 0 -6 9 -10 20 -10 11 0 23 -7 26 -15 4 -8 15 -15 25 -15 11 0 22 -7 25
-15 4 -8 17 -15 30 -15 14 0 27 -7 30 -15 4 -8 17 -15 30 -15 14 0 27 -7 30
-15 4 -8 17 -15 30 -15 14 0 27 -7 30 -15 4 -8 16 -15 29 -15 13 0 25 -7 29
-15 3 -8 14 -15 24 -15 10 0 35 -9 57 -20 22 -11 45 -20 52 -20 7 0 13 -4 13
-10 0 -5 11 -10 24 -10 13 0 29 -7 36 -15 7 -8 22 -15 34 -15 12 0 31 -7 42
-15 10 -8 30 -15 44 -15 14 0 34 -7 44 -15 11 -8 32 -15 46 -15 14 0 35 -7 46
-15 10 -8 33 -15 50 -15 16 0 39 -7 50 -15 10 -8 33 -15 50 -15 17 0 51 -7 74
-15 23 -8 57 -15 76 -15 18 0 45 -5 61 -11 15 -6 64 -15 108 -20 44 -4 81 -13
83 -19 5 -15 779 -14 784 2 3 7 41 14 99 18 52 4 107 12 122 19 16 6 45 11 65
11 20 0 50 7 66 15 15 8 43 15 60 15 18 0 41 7 52 15 10 8 33 15 49 15 17 0
39 6 50 14 11 7 37 16 58 20 20 4 37 11 37 16 0 6 14 10 30 10 17 0 30 4 30 9
0 5 10 13 23 16 36 11 172 78 175 87 2 4 12 8 22 8 9 0 23 7 30 15 7 8 20 15
30 15 10 0 20 7 24 15 3 8 14 15 25 15 10 0 21 7 25 15 3 8 12 15 20 15 7 0
16 7 20 15 3 8 15 15 26 15 11 0 20 5 20 10 0 6 7 13 16 17 9 3 30 19 47 34
17 16 35 29 40 29 4 0 21 14 37 30 16 17 31 30 34 30 16 0 286 268 286 284 0
3 18 24 40 47 22 24 43 51 46 61 3 10 16 30 30 45 13 14 24 34 24 45 0 10 7
21 15 24 8 4 15 12 15 20 0 8 6 14 14 14 8 0 16 10 20 23 3 12 16 34 29 48 14
14 28 36 32 50 4 13 10 26 14 29 3 3 24 41 46 85 22 44 43 82 47 85 3 3 10 18
13 33 4 15 11 27 16 27 4 0 11 16 15 35 3 19 10 35 15 35 4 0 11 21 15 48 4
26 18 64 31 85 13 21 26 52 30 70 3 18 10 37 14 43 5 6 11 37 15 70 4 32 10
64 14 69 17 22 34 304 34 560 -1 259 -18 544 -34 555 -4 3 -10 41 -14 85 -4
44 -11 82 -15 85 -5 3 -12 35 -15 72 -4 37 -11 70 -16 73 -4 2 -11 29 -15 60
-3 30 -10 57 -15 60 -4 2 -11 25 -14 50 -4 24 -11 47 -16 50 -4 3 -11 28 -15
55 -4 27 -11 52 -15 55 -5 3 -12 26 -16 50 -3 25 -10 45 -14 45 -4 0 -11 20
-14 45 -4 25 -11 45 -15 45 -5 0 -12 20 -15 45 -4 25 -11 45 -15 45 -5 0 -12
20 -15 45 -4 25 -11 45 -16 45 -5 0 -12 20 -16 45 -3 25 -10 45 -14 45 -5 0
-12 15 -15 33 -4 17 -11 37 -15 42 -4 6 -11 25 -15 43 -3 17 -10 32 -15 32 -4
0 -11 16 -15 36 -3 20 -10 44 -15 53 -20 36 -50 111 -50 125 0 8 -4 17 -9 21
-5 3 -12 19 -16 35 -4 17 -10 30 -15 30 -4 0 -11 18 -15 40 -4 22 -10 40 -15
40 -4 0 -11 16 -14 35 -4 19 -11 35 -16 35 -6 0 -10 8 -10 18 0 10 -7 27 -15
38 -8 10 -15 26 -15 34 0 8 -9 33 -20 55 -11 22 -19 46 -20 53 0 6 -3 12 -8
12 -4 0 -16 24 -26 53 -10 28 -27 71 -37 94 -10 23 -19 47 -19 52 0 6 -4 11
-10 11 -5 0 -10 6 -10 13 0 6 -6 24 -14 39 -8 15 -17 40 -21 57 -4 17 -11 31
-15 31 -5 0 -12 16 -16 35 -3 19 -10 35 -14 35 -5 0 -11 14 -15 30 -4 17 -11
30 -16 30 -5 0 -9 5 -9 11 0 9 -13 40 -50 124 -37 84 -50 115 -50 124 0 6 -4
11 -9 11 -5 0 -12 14 -16 30 -4 17 -11 30 -16 30 -5 0 -9 5 -9 11 0 6 -6 25
-14 42 -41 91 -56 127 -56 136 0 6 -4 11 -10 11 -5 0 -10 6 -10 13 -1 6 -9 30
-20 52 -11 22 -19 46 -20 53 0 6 -4 12 -10 12 -5 0 -10 8 -10 18 -1 9 -9 35
-20 57 -11 22 -19 46 -20 53 0 6 -4 12 -9 12 -5 0 -13 15 -16 33 -4 17 -11 34
-14 37 -10 7 -41 93 -41 113 0 10 -7 20 -15 23 -9 4 -15 19 -15 35 0 17 -6 32
-15 35 -8 4 -15 18 -15 34 0 16 -7 35 -15 44 -8 8 -15 26 -15 41 0 14 -7 28
-15 31 -8 4 -15 18 -15 34 0 16 -7 35 -15 44 -8 8 -15 26 -15 41 0 14 -7 28
-15 31 -9 4 -15 19 -15 40 0 22 -6 37 -15 40 -9 4 -15 19 -15 36 0 16 -7 36
-15 44 -8 9 -15 29 -15 45 0 17 -6 32 -15 35 -9 4 -15 19 -15 39 0 18 -7 38
-15 45 -8 7 -15 28 -15 47 0 21 -6 36 -15 39 -9 4 -15 19 -15 39 0 19 -7 40
-15 49 -8 8 -15 28 -15 45 0 16 -7 36 -15 45 -8 8 -15 30 -15 49 0 19 -7 40
-15 47 -9 7 -15 29 -15 52 0 25 -5 41 -15 44 -10 4 -15 19 -15 43 0 21 -7 46
-15 57 -8 10 -15 38 -15 60 0 28 -5 44 -15 48 -11 4 -15 20 -15 56 0 36 -4 52
-15 56 -11 5 -15 21 -15 60 0 39 -4 56 -15 60 -11 5 -15 22 -15 63 -1 33 -7
64 -15 75 -9 12 -15 42 -15 75 -1 33 -7 64 -15 75 -10 13 -15 43 -15 87 0 47
-4 70 -15 79 -11 9 -15 35 -15 109 0 71 -4 102 -16 119 -13 19 -15 80 -15 461
-1 381 1 443 15 469 11 20 16 57 16 107 0 55 4 81 15 91 10 11 15 36 15 79 0
47 4 64 15 69 11 4 15 21 15 60 0 39 4 55 15 60 10 3 15 19 15 43 0 21 7 47
15 57 8 11 15 34 15 52 0 18 7 39 15 48 8 8 15 25 15 38 0 13 7 33 15 44 8 10
15 31 15 45 0 15 7 29 15 33 9 3 15 18 15 34 0 16 7 35 15 42 8 7 15 23 15 37
0 13 7 26 15 29 8 4 15 18 15 34 0 16 7 30 15 34 8 3 15 17 15 31 0 14 4 25
10 25 5 0 13 12 16 27 4 15 13 34 21 41 7 7 13 20 13 28 0 9 7 22 15 30 8 9
15 24 15 34 0 10 7 20 15 24 8 3 15 15 15 26 0 11 7 23 15 26 8 4 15 17 15 30
0 13 4 24 9 24 10 0 34 38 47 73 3 9 12 17 19 17 7 0 16 7 19 16 3 9 15 14 28
12 19 -2 24 -11 29 -54z m13967 -14454 l-3 -7235 -3850 -2222 c-7963 -4598
-8683 -5013 -8690 -5013 -3 0 -4 1708 -3 3796 l3 3796 1390 802 c4358 2514
4321 2492 4411 2581 91 90 132 171 145 286 8 66 13 1084 16 3381 l4 3287 697
402 c383 222 1172 677 1752 1012 580 336 1726 997 2545 1469 820 473 1508 870
1530 883 22 13 43 20 48 16 4 -4 6 -3262 5 -7241z m-26353 7163 c11 -7 29 -13
41 -13 12 0 734 -411 1605 -914 871 -502 2309 -1332 3194 -1843 l1610 -929 7
-3250 c4 -2115 10 -3284 17 -3348 9 -89 15 -110 63 -205 43 -88 65 -119 128
-181 71 -71 109 -95 765 -474 767 -443 3208 -1853 4290 -2478 l700 -404 3
-3716 c1 -2045 -1 -3753 -5 -3797 l-8 -79 -2155 1243 c-1185 684 -4004 2312
-6265 3617 l-4110 2373 -3 7040 c-2 3872 0 7127 4 7232 l6 193 47 -27 c25 -15
55 -33 66 -40z m9200 -5293 c699 -403 1659 -958 2135 -1233 476 -275 910 -527
966 -559 l101 -58 7 -61 c7 -73 8 -5229 1 -5229 -3 0 -1031 592 -2285 1316
l-2280 1317 0 2644 0 2645 43 -24 c23 -13 614 -354 1312 -758z m9183 -1891
l-3 -2621 -1900 -1097 c-1045 -603 -2069 -1194 -2275 -1313 -348 -200 -375
-214 -382 -194 -3 11 -6 1189 -7 2617 l-1 2596 1908 1101 c1049 605 2074 1197
2277 1315 204 118 373 215 378 216 4 1 6 -1178 5 -2620z"/>
<path d="M8852 24813 c5 -26 38 -29 38 -4 0 15 -6 21 -21 21 -14 0 -19 -5 -17
-17z"/>
<path d="M8900 24771 c0 -12 5 -21 10 -21 6 0 10 6 10 14 0 8 -4 18 -10 21 -5
3 -10 -3 -10 -14z"/>
</g>
</svg>
