<?xml version="1.0" encoding="utf-8"?>
<!DOCTYPE svg PUBLIC "-//W3C//DTD SVG 1.1//EN" "http://www.w3.org/Graphics/SVG/1.1/DTD/svg11.dtd">
<svg version="1.1" id="Layer_2" xmlns="http://www.w3.org/2000/svg" xmlns:xlink="http://www.w3.org/1999/xlink" x="0px" y="0px"
	 width="425.2px" height="425.2px" viewBox="0 0 425.2 425.2" enable-background="new 0 0 425.2 425.2" xml:space="preserve">
<line fill="none" stroke="#000000" stroke-width="9" x1="214.229" y1="262.242" x2="214.229" y2="399.809"/>
<line fill="none" stroke="#000000" stroke-width="9" x1="93.847" y1="193.37" x2="214.229" y2="262.242"/>
<polyline fill="none" stroke="#000000" stroke-width="9" points="267.095,231.49 267.095,290.631 
	215.502,319.605 214.229,320.242 162.637,291.268 162.637,233.127 "/>
<polyline fill="none" stroke="#000000" stroke-width="9" points="93.847,193 93.847,331.937 
	214.229,399.809 334.612,331.3 334.612,192 "/>
<line fill="none" stroke="#000000" stroke-width="9" x1="334.612" y1="192.733" x2="214.229" y2="262.242"/>
<path fill="none" stroke="#000000" stroke-width="9" stroke-miterlimit="10" shape-rendering="geometricPrecision" d="M162.637,233.127
	c-0.137-7.627,1.297-24.847,7.03-33.127c3.667,32.667,57.833,26,38.083-5.5c-20.25-36-5.5-47.75,3.932-57.182
	c-9.554,36.943,55.413,52.682,55.413,94.172"/>
<path fill="none" stroke="#000000" stroke-width="9" stroke-miterlimit="10" shape-rendering="geometricPrecision" d="M334.612,192.733
	c-1.274-24.841-14.014-59.236-40.128-91.083c10.828,75.159-74.349,64.681-57.151,0.35c4.459-22.93,11.342-41.736-31.333-64.667
	c4.459,16.561,15.597,34.505-7.333,45.333c-42.039,19.745-43.036,45.098-36.667,71.85c11.465,41.401-59.197,39.815-42-24.516
	c-13.375,15.923-26.153,33.889-26.153,63.37"/>
</svg>